<svg width="115" height="786" viewBox="0 0 115 786" fill="none" xmlns="http://www.w3.org/2000/svg">
<path d="M29.3078 54.4849L29.3086 54.4834L57.5018 1.06778L85.9242 54.4834L85.925 54.4849L114.434 108.5L57.4998 215.933C51.484 204.592 45.9907 194.251 40.7069 184.304C27.6271 159.68 15.8304 137.473 0.565767 108.501L29.3078 54.4849Z" stroke="white"/>
<path d="M52.5044 132.81V132.08C53.6724 132.08 54.4024 131.74 54.6944 131.058C55.0351 130.328 55.2054 129.477 55.2054 128.503V93.5365C55.2054 93.0498 54.9621 92.8065 54.4754 92.8065C54.2807 92.8065 54.0131 92.8795 53.6724 93.0255L45.3504 95.6535V93.0255L62.3594 87.1125V89.0835C61.5807 89.4242 60.9481 89.9595 60.4614 90.6895C60.0234 91.4195 59.8531 92.2711 59.9504 93.2445V128.211C59.9504 129.233 60.1207 130.134 60.4614 130.912C60.8021 131.691 61.5807 132.08 62.7974 132.08V132.81H52.5044Z" fill="#0C0B10"/>
<path d="M29.3087 336.983L29.3094 336.981L57.5018 283.075L85.9234 336.981L85.9241 336.983L114.436 391.499L57.4998 499.924C51.4843 488.48 45.9914 478.044 40.7077 468.006C27.6274 443.154 15.8302 420.741 0.564638 391.501L29.3087 336.983Z" stroke="white"/>
<path d="M43.5318 375.26H44.1888C44.4322 375.26 44.7242 375.139 45.0648 374.895C45.4542 374.652 45.8678 374.384 46.3058 374.092C46.7925 373.752 47.3522 373.362 47.9848 372.924C48.6662 372.486 49.4205 372.097 50.2478 371.756C51.1238 371.367 52.0972 371.051 53.1678 370.807C54.2385 370.564 55.4308 370.442 56.7448 370.442C58.3995 370.442 60.0055 370.686 61.5628 371.172C63.1202 371.61 64.5072 372.316 65.7238 373.289C66.9405 374.214 67.9138 375.406 68.6438 376.866C69.3738 378.326 69.7388 380.078 69.7388 382.122C69.7388 383.826 69.4468 385.383 68.8628 386.794C68.2788 388.206 67.4758 389.52 66.4538 390.736C65.4805 391.953 64.3612 393.121 63.0958 394.24C61.8792 395.311 60.6138 396.382 59.2998 397.452C58.0345 398.474 56.7935 399.521 55.5768 400.591C54.4088 401.662 53.3382 402.781 52.3648 403.949C51.4402 405.117 50.6615 406.383 50.0288 407.745C49.3962 409.059 49.0312 410.471 48.9338 411.979H64.1178C65.9672 411.979 67.4272 411.663 68.4978 411.03C69.5685 410.349 70.1282 409.254 70.1768 407.745H70.8338V416.067H43.8238C43.8238 413.877 44.1888 411.858 44.9188 410.008C45.6488 408.11 46.5978 406.383 47.7658 404.825C48.9338 403.219 50.2235 401.735 51.6348 400.372C53.0948 399.01 54.5305 397.696 55.9418 396.43C57.1098 395.408 58.2292 394.386 59.2998 393.364C60.4192 392.342 61.3925 391.32 62.2198 390.298C63.0958 389.228 63.7772 388.133 64.2638 387.013C64.7992 385.845 65.0668 384.629 65.0668 383.363C65.0668 381.757 64.7748 380.322 64.1908 379.056C63.6555 377.791 62.9255 376.72 62.0008 375.844C61.1248 374.968 60.1028 374.311 58.9348 373.873C57.7668 373.387 56.5988 373.143 55.4308 373.143C52.9488 373.143 50.7588 373.898 48.8608 375.406C46.9628 376.866 45.4298 378.764 44.2618 381.1H43.5318V375.26Z" fill="#0C0B10"/>
<path d="M29.3087 621.983L29.3094 621.981L57.5018 568.075L85.9234 621.981L85.9241 621.983L114.436 676.499L57.4998 784.924C51.4843 773.48 45.9914 763.044 40.7077 753.006C27.6274 728.154 15.8302 705.741 0.564638 676.501L29.3087 621.983Z" stroke="white"/>
<path d="M45.0394 652.019H45.6964C46.0857 652.019 46.4994 651.946 46.9374 651.8C47.3754 651.654 47.8621 651.484 48.3974 651.289C49.2247 650.997 50.2224 650.705 51.3904 650.413C52.5584 650.073 53.9941 649.902 55.6974 649.902C57.6441 649.902 59.3717 650.194 60.8804 650.778C62.4377 651.314 63.7274 652.068 64.7494 653.041C65.8201 653.966 66.6231 655.061 67.1584 656.326C67.7424 657.592 68.0344 658.906 68.0344 660.268C68.0344 662.166 67.4504 663.991 66.2824 665.743C65.1631 667.495 63.4111 668.907 61.0264 669.977C64.3844 670.951 66.8907 672.508 68.5454 674.649C70.2001 676.791 71.0274 679.224 71.0274 681.949C71.0274 683.993 70.6381 685.891 69.8594 687.643C69.1294 689.347 68.0344 690.855 66.5744 692.169C65.1631 693.435 63.4597 694.432 61.4644 695.162C59.4691 695.892 57.2304 696.257 54.7484 696.257C52.8991 696.257 51.3661 696.087 50.1494 695.746C48.9327 695.406 47.9107 695.089 47.0834 694.797C46.5481 694.603 46.0614 694.457 45.6234 694.359C45.1854 694.213 44.7474 694.14 44.3094 694.14H43.6524V688.519H44.3824C45.6477 690.271 47.2051 691.61 49.0544 692.534C50.9524 693.41 52.8991 693.848 54.8944 693.848C56.6464 693.848 58.2281 693.556 59.6394 692.972C61.0507 692.34 62.2431 691.512 63.2164 690.49C64.2384 689.468 64.9927 688.3 65.4794 686.986C66.0147 685.672 66.2824 684.31 66.2824 682.898C66.2824 681.438 65.9904 680.027 65.4064 678.664C64.8224 677.253 63.9951 676.012 62.9244 674.941C61.8537 673.871 60.5397 673.019 58.9824 672.386C57.4737 671.754 55.7461 671.437 53.7994 671.437H50.4414V669.028H54.1644C55.6731 669.028 56.9871 668.785 58.1064 668.298C59.2744 667.812 60.2477 667.155 61.0264 666.327C61.8051 665.5 62.3891 664.575 62.7784 663.553C63.1677 662.531 63.3624 661.461 63.3624 660.341C63.3624 659.319 63.1677 658.322 62.7784 657.348C62.4377 656.375 61.9024 655.523 61.1724 654.793C60.4424 654.015 59.5421 653.382 58.4714 652.895C57.4494 652.409 56.2571 652.165 54.8944 652.165C53.2397 652.165 51.5851 652.628 49.9304 653.552C48.2757 654.477 46.8887 655.864 45.7694 657.713H45.0394V652.019Z" fill="#0C0B10"/>
<line x1="57.5" y1="217" x2="57.5" y2="284" stroke="white"/>
<line x1="57.5" y1="498" x2="57.5" y2="569" stroke="white"/>
</svg>
