<svg width="540" height="99" viewBox="0 0 540 99" fill="none" xmlns="http://www.w3.org/2000/svg">
<path fill-rule="evenodd" clip-rule="evenodd" d="M228.082 17.0005H57.5C40.6553 17.0005 27 30.6558 27 47.5005C27 64.3452 40.6553 78.0005 57.5 78.0005H228.082V77.0005H57.5C41.2076 77.0005 28 63.7929 28 47.5005C28 31.2081 41.2076 18.0005 57.5 18.0005H228.082V17.0005ZM313.531 77.0005H482.5C498.792 77.0005 512 63.7929 512 47.5005C512 31.2081 498.792 18.0005 482.5 18.0005H313.531V17.0005H482.5C499.345 17.0005 513 30.6558 513 47.5005C513 64.3452 499.345 78.0005 482.5 78.0005H313.531V77.0005Z" fill="#0C0B10"/>
<rect y="26.0005" width="540" height="55" rx="27.5" fill="#0C0B10"/>
<path d="M160.258 56.2525C160.258 57.0525 160.098 57.7405 159.778 58.3165C159.458 58.8765 159.042 59.3325 158.53 59.6845C158.034 60.0365 157.466 60.2925 156.826 60.4525C156.202 60.6125 155.578 60.6925 154.954 60.6925C154.314 60.6925 153.762 60.6285 153.298 60.5005C152.834 60.3725 152.41 60.2525 152.026 60.1405C151.77 60.0605 151.538 59.9965 151.33 59.9485C151.122 59.8845 150.914 59.8525 150.706 59.8525V57.1165H150.946C150.946 57.7245 151.098 58.2125 151.402 58.5805C151.722 58.9325 152.09 59.2045 152.506 59.3965C152.922 59.5885 153.338 59.7165 153.754 59.7805C154.17 59.8285 154.474 59.8525 154.666 59.8525C155.354 59.8525 155.946 59.7565 156.442 59.5645C156.938 59.3565 157.346 59.0925 157.666 58.7725C157.986 58.4365 158.218 58.0685 158.362 57.6685C158.522 57.2685 158.602 56.8605 158.602 56.4445C158.602 55.9165 158.49 55.4765 158.266 55.1245C158.042 54.7565 157.746 54.4365 157.378 54.1645C157.026 53.8925 156.618 53.6605 156.154 53.4685C155.69 53.2765 155.218 53.0845 154.738 52.8925C154.194 52.6845 153.658 52.4685 153.13 52.2445C152.602 52.0205 152.13 51.7485 151.714 51.4285C151.298 51.0925 150.962 50.7005 150.706 50.2525C150.45 49.7885 150.322 49.2205 150.322 48.5485C150.322 47.8445 150.458 47.2365 150.73 46.7245C151.002 46.1965 151.362 45.7645 151.81 45.4285C152.274 45.0925 152.794 44.8445 153.37 44.6845C153.962 44.5085 154.562 44.4205 155.17 44.4205C155.586 44.4205 155.978 44.4525 156.346 44.5165C156.714 44.5645 157.066 44.6285 157.402 44.7085C157.674 44.7725 157.938 44.8285 158.194 44.8765C158.45 44.9085 158.698 44.9245 158.938 44.9245V47.3965H158.698C158.666 46.5645 158.338 46.0045 157.714 45.7165C157.09 45.4125 156.226 45.2605 155.122 45.2605C154.482 45.2605 153.954 45.3725 153.538 45.5965C153.138 45.8045 152.818 46.0685 152.578 46.3885C152.338 46.6925 152.17 47.0285 152.074 47.3965C151.994 47.7485 151.954 48.0605 151.954 48.3325C151.954 48.7805 152.05 49.1645 152.242 49.4845C152.45 49.8045 152.722 50.0845 153.058 50.3245C153.394 50.5645 153.778 50.7805 154.21 50.9725C154.658 51.1645 155.122 51.3485 155.602 51.5245C156.146 51.7325 156.698 51.9565 157.258 52.1965C157.818 52.4365 158.314 52.7325 158.746 53.0845C159.194 53.4365 159.554 53.8685 159.826 54.3805C160.114 54.8925 160.258 55.5165 160.258 56.2525ZM168.445 60.2605H168.565V60.5005H165.157V60.2605H165.277C165.405 60.2605 165.517 60.2125 165.613 60.1165C165.709 60.0205 165.789 59.9085 165.853 59.7805C165.933 59.6525 165.989 59.5165 166.021 59.3725C166.053 59.2125 166.069 59.0685 166.069 58.9405V45.5485H163.285C163.029 45.5485 162.805 45.6045 162.613 45.7165C162.421 45.8285 162.261 45.9725 162.133 46.1485C162.005 46.3085 161.909 46.4925 161.845 46.7005C161.781 46.8925 161.749 47.0845 161.749 47.2765H161.509V44.6605H172.285V47.2765H172.045C172.045 47.0845 172.013 46.8925 171.949 46.7005C171.885 46.4925 171.789 46.3085 171.661 46.1485C171.533 45.9725 171.373 45.8285 171.181 45.7165C170.989 45.6045 170.765 45.5485 170.509 45.5485H167.677V58.9405C167.677 59.0685 167.693 59.2125 167.725 59.3725C167.757 59.5165 167.805 59.6525 167.869 59.7805C167.949 59.9085 168.029 60.0205 168.109 60.1165C168.205 60.2125 168.317 60.2605 168.445 60.2605ZM181.501 60.2605H181.621C182.005 60.2605 182.197 60.0845 182.197 59.7325C182.197 59.6045 182.173 59.4685 182.125 59.3245L179.965 53.4925H175.765L173.677 59.2285C173.629 59.3565 173.605 59.4765 173.605 59.5885C173.605 59.7965 173.661 59.9645 173.773 60.0925C173.885 60.2045 174.005 60.2605 174.133 60.2605H174.253V60.5005H171.589V60.2605H171.709C171.917 60.2605 172.117 60.1405 172.309 59.9005C172.517 59.6445 172.685 59.3485 172.813 59.0125L178.309 44.3725L183.685 58.8685C183.797 59.1885 183.949 59.5005 184.141 59.8045C184.349 60.1085 184.613 60.2605 184.933 60.2605H185.053V60.5005H181.501V60.2605ZM176.005 52.6765H179.701L177.853 47.6605L176.005 52.6765ZM190.713 60.2605H190.833V60.5005H187.449V60.2605H187.569C187.681 60.2605 187.785 60.2125 187.881 60.1165C187.977 60.0205 188.057 59.9085 188.121 59.7805C188.201 59.6525 188.257 59.5165 188.289 59.3725C188.321 59.2125 188.337 59.0685 188.337 58.9405V46.1485C188.337 46.0365 188.321 45.9085 188.289 45.7645C188.257 45.6205 188.201 45.4845 188.121 45.3565C188.057 45.2285 187.977 45.1245 187.881 45.0445C187.785 44.9485 187.681 44.9005 187.569 44.9005H187.449V44.6605H191.625C193.225 44.6605 194.457 44.9725 195.321 45.5965C196.201 46.2205 196.641 47.1405 196.641 48.3565C196.641 48.9645 196.537 49.5005 196.329 49.9645C196.137 50.4125 195.873 50.8045 195.537 51.1405C195.201 51.4605 194.801 51.7245 194.337 51.9325C193.889 52.1245 193.409 52.2685 192.897 52.3645L194.625 55.0045C195.041 55.6445 195.465 56.2765 195.897 56.9005C196.329 57.5085 196.753 58.1405 197.169 58.7965C197.281 58.9565 197.401 59.1245 197.529 59.3005C197.673 59.4765 197.817 59.6365 197.961 59.7805C198.121 59.9245 198.281 60.0445 198.441 60.1405C198.617 60.2205 198.793 60.2605 198.969 60.2605V60.5005H197.937C197.297 60.5005 196.769 60.3485 196.353 60.0445C195.953 59.7245 195.617 59.3565 195.345 58.9405C194.625 57.8845 193.905 56.8125 193.185 55.7245C192.481 54.6365 191.777 53.5645 191.073 52.5085C190.897 52.4925 190.705 52.4765 190.497 52.4605C190.305 52.4285 190.121 52.3965 189.945 52.3645V58.9405C189.945 59.0685 189.961 59.2125 189.993 59.3725C190.025 59.5165 190.073 59.6525 190.137 59.7805C190.217 59.9085 190.297 60.0205 190.377 60.1165C190.473 60.2125 190.585 60.2605 190.713 60.2605ZM189.945 45.4765V51.5725H190.065C190.193 51.5885 190.393 51.6045 190.665 51.6205C190.953 51.6205 191.305 51.6205 191.721 51.6205C192.057 51.6205 192.409 51.5725 192.777 51.4765C193.161 51.3645 193.513 51.1885 193.833 50.9485C194.169 50.6925 194.441 50.3645 194.649 49.9645C194.873 49.5645 194.985 49.0605 194.985 48.4525C194.985 47.8445 194.865 47.3485 194.625 46.9645C194.401 46.5805 194.081 46.2765 193.665 46.0525C193.265 45.8285 192.777 45.6765 192.201 45.5965C191.625 45.5165 190.993 45.4765 190.305 45.4765H189.945ZM207.442 60.2605H207.562V60.5005H204.154V60.2605H204.274C204.402 60.2605 204.514 60.2125 204.61 60.1165C204.706 60.0205 204.786 59.9085 204.85 59.7805C204.93 59.6525 204.986 59.5165 205.018 59.3725C205.05 59.2125 205.066 59.0685 205.066 58.9405V45.5485H202.282C202.026 45.5485 201.802 45.6045 201.61 45.7165C201.418 45.8285 201.258 45.9725 201.13 46.1485C201.002 46.3085 200.906 46.4925 200.842 46.7005C200.778 46.8925 200.746 47.0845 200.746 47.2765H200.506V44.6605H211.282V47.2765H211.042C211.042 47.0845 211.01 46.8925 210.946 46.7005C210.882 46.4925 210.786 46.3085 210.658 46.1485C210.53 45.9725 210.37 45.8285 210.178 45.7165C209.986 45.6045 209.762 45.5485 209.506 45.5485H206.674V58.9405C206.674 59.0685 206.69 59.2125 206.722 59.3725C206.754 59.5165 206.802 59.6525 206.866 59.7805C206.946 59.9085 207.026 60.0205 207.106 60.1165C207.202 60.2125 207.314 60.2605 207.442 60.2605ZM229.919 60.2605H230.039C230.423 60.2605 230.615 60.0845 230.615 59.7325C230.615 59.6045 230.591 59.4685 230.543 59.3245L228.383 53.4925H224.183L222.095 59.2285C222.047 59.3565 222.023 59.4765 222.023 59.5885C222.023 59.7965 222.079 59.9645 222.191 60.0925C222.303 60.2045 222.423 60.2605 222.551 60.2605H222.671V60.5005H220.007V60.2605H220.127C220.335 60.2605 220.535 60.1405 220.727 59.9005C220.935 59.6445 221.103 59.3485 221.231 59.0125L226.727 44.3725L232.103 58.8685C232.215 59.1885 232.367 59.5005 232.559 59.8045C232.767 60.1085 233.031 60.2605 233.351 60.2605H233.471V60.5005H229.919V60.2605ZM224.423 52.6765H228.119L226.271 47.6605L224.423 52.6765ZM249.134 60.2605H249.254V60.5005H245.846V60.2605H245.966C246.094 60.2605 246.206 60.2125 246.302 60.1165C246.398 60.0205 246.478 59.9085 246.542 59.7805C246.622 59.6525 246.678 59.5165 246.71 59.3725C246.742 59.2125 246.758 59.0685 246.758 58.9405V45.5485H243.974C243.718 45.5485 243.494 45.6045 243.302 45.7165C243.11 45.8285 242.95 45.9725 242.822 46.1485C242.694 46.3085 242.598 46.4925 242.534 46.7005C242.47 46.8925 242.438 47.0845 242.438 47.2765H242.198V44.6605H252.974V47.2765H252.734C252.734 47.0845 252.702 46.8925 252.638 46.7005C252.574 46.4925 252.478 46.3085 252.35 46.1485C252.222 45.9725 252.062 45.8285 251.87 45.7165C251.678 45.6045 251.454 45.5485 251.198 45.5485H248.366V58.9405C248.366 59.0685 248.382 59.2125 248.414 59.3725C248.446 59.5165 248.494 59.6525 248.558 59.7805C248.638 59.9085 248.718 60.0205 248.798 60.1165C248.894 60.2125 249.006 60.2605 249.134 60.2605ZM258.512 60.2605H258.632V60.5005H255.248V60.2605H255.368C255.48 60.2605 255.584 60.2125 255.68 60.1165C255.776 60.0205 255.856 59.9085 255.92 59.7805C256 59.6525 256.056 59.5165 256.088 59.3725C256.12 59.2125 256.136 59.0685 256.136 58.9405V46.1485C256.136 46.0365 256.12 45.9085 256.088 45.7645C256.056 45.6205 256 45.4845 255.92 45.3565C255.856 45.2285 255.776 45.1245 255.68 45.0445C255.584 44.9485 255.48 44.9005 255.368 44.9005H255.248V44.6605H259.424C261.024 44.6605 262.256 44.9725 263.12 45.5965C264 46.2205 264.44 47.1405 264.44 48.3565C264.44 48.9645 264.336 49.5005 264.128 49.9645C263.936 50.4125 263.672 50.8045 263.336 51.1405C263 51.4605 262.6 51.7245 262.136 51.9325C261.688 52.1245 261.208 52.2685 260.696 52.3645L262.424 55.0045C262.84 55.6445 263.264 56.2765 263.696 56.9005C264.128 57.5085 264.552 58.1405 264.968 58.7965C265.08 58.9565 265.2 59.1245 265.328 59.3005C265.472 59.4765 265.616 59.6365 265.76 59.7805C265.92 59.9245 266.08 60.0445 266.24 60.1405C266.416 60.2205 266.592 60.2605 266.768 60.2605V60.5005H265.736C265.096 60.5005 264.568 60.3485 264.152 60.0445C263.752 59.7245 263.416 59.3565 263.144 58.9405C262.424 57.8845 261.704 56.8125 260.984 55.7245C260.28 54.6365 259.576 53.5645 258.872 52.5085C258.696 52.4925 258.504 52.4765 258.296 52.4605C258.104 52.4285 257.92 52.3965 257.744 52.3645V58.9405C257.744 59.0685 257.76 59.2125 257.792 59.3725C257.824 59.5165 257.872 59.6525 257.936 59.7805C258.016 59.9085 258.096 60.0205 258.176 60.1165C258.272 60.2125 258.384 60.2605 258.512 60.2605ZM257.744 45.4765V51.5725H257.864C257.992 51.5885 258.192 51.6045 258.464 51.6205C258.752 51.6205 259.104 51.6205 259.52 51.6205C259.856 51.6205 260.208 51.5725 260.576 51.4765C260.96 51.3645 261.312 51.1885 261.632 50.9485C261.968 50.6925 262.24 50.3645 262.448 49.9645C262.672 49.5645 262.784 49.0605 262.784 48.4525C262.784 47.8445 262.664 47.3485 262.424 46.9645C262.2 46.5805 261.88 46.2765 261.464 46.0525C261.064 45.8285 260.576 45.6765 260 45.5965C259.424 45.5165 258.792 45.4765 258.104 45.4765H257.744ZM269.265 44.6605H272.697V44.9005H272.577C272.465 44.9005 272.361 44.9485 272.265 45.0445C272.169 45.1245 272.089 45.2285 272.025 45.3565C271.961 45.4685 271.905 45.6045 271.857 45.7645C271.825 45.9085 271.809 46.0365 271.809 46.1485V58.9405C271.809 59.0685 271.825 59.2125 271.857 59.3725C271.889 59.5165 271.937 59.6525 272.001 59.7805C272.081 59.9085 272.161 60.0205 272.241 60.1165C272.337 60.2125 272.449 60.2605 272.577 60.2605H272.697V60.5005H269.265V60.2605H269.385C269.513 60.2605 269.625 60.2205 269.721 60.1405C269.817 60.0445 269.897 59.9325 269.961 59.8045C270.041 59.6605 270.097 59.5165 270.129 59.3725C270.161 59.2125 270.177 59.0685 270.177 58.9405V46.1485C270.177 46.0365 270.161 45.9085 270.129 45.7645C270.097 45.6205 270.041 45.4845 269.961 45.3565C269.897 45.2285 269.817 45.1245 269.721 45.0445C269.625 44.9485 269.513 44.9005 269.385 44.9005H269.265V44.6605ZM275.941 44.6605H279.349C281.125 44.6605 282.469 45.0045 283.381 45.6925C284.309 46.3645 284.773 47.3245 284.773 48.5725C284.773 49.2445 284.613 49.8445 284.293 50.3725C283.973 50.9005 283.549 51.3485 283.021 51.7165C282.509 52.0685 281.925 52.3405 281.269 52.5325C280.629 52.7245 279.989 52.8205 279.349 52.8205H278.437V58.9405C278.437 59.0685 278.453 59.2125 278.485 59.3725C278.517 59.5165 278.565 59.6525 278.629 59.7805C278.709 59.9085 278.789 60.0205 278.869 60.1165C278.965 60.2125 279.077 60.2605 279.205 60.2605H279.325V60.5005H275.941V60.2605H276.061C276.173 60.2605 276.277 60.2125 276.373 60.1165C276.469 60.0205 276.549 59.9085 276.613 59.7805C276.677 59.6525 276.725 59.5165 276.757 59.3725C276.789 59.2125 276.805 59.0685 276.805 58.9405V46.1485C276.805 45.9245 276.741 45.6685 276.613 45.3805C276.485 45.0925 276.301 44.9325 276.061 44.9005H275.941V44.6605ZM278.437 45.5005V51.9805H279.157C279.797 51.9805 280.365 51.8925 280.861 51.7165C281.373 51.5405 281.797 51.3085 282.133 51.0205C282.469 50.7325 282.725 50.4045 282.901 50.0365C283.077 49.6685 283.165 49.2925 283.165 48.9085C283.165 48.4445 283.085 48.0125 282.925 47.6125C282.781 47.1965 282.533 46.8365 282.181 46.5325C281.845 46.2125 281.397 45.9645 280.837 45.7885C280.277 45.5965 279.589 45.5005 278.773 45.5005H278.437ZM298.235 60.2605H298.355V60.5005H294.971V60.2605H295.091C295.203 60.2605 295.307 60.2125 295.403 60.1165C295.499 60.0205 295.579 59.9085 295.643 59.7805C295.723 59.6525 295.779 59.5165 295.811 59.3725C295.843 59.2125 295.859 59.0685 295.859 58.9405V46.1485C295.859 46.0365 295.843 45.9085 295.811 45.7645C295.779 45.6205 295.723 45.4845 295.643 45.3565C295.579 45.2285 295.499 45.1245 295.403 45.0445C295.307 44.9485 295.203 44.9005 295.091 44.9005H294.971V44.6605H299.147C300.747 44.6605 301.979 44.9725 302.843 45.5965C303.723 46.2205 304.163 47.1405 304.163 48.3565C304.163 48.9645 304.059 49.5005 303.851 49.9645C303.659 50.4125 303.395 50.8045 303.059 51.1405C302.723 51.4605 302.323 51.7245 301.859 51.9325C301.411 52.1245 300.931 52.2685 300.419 52.3645L302.147 55.0045C302.563 55.6445 302.987 56.2765 303.419 56.9005C303.851 57.5085 304.275 58.1405 304.691 58.7965C304.803 58.9565 304.923 59.1245 305.051 59.3005C305.195 59.4765 305.339 59.6365 305.483 59.7805C305.643 59.9245 305.803 60.0445 305.963 60.1405C306.139 60.2205 306.315 60.2605 306.491 60.2605V60.5005H305.459C304.819 60.5005 304.291 60.3485 303.875 60.0445C303.475 59.7245 303.139 59.3565 302.867 58.9405C302.147 57.8845 301.427 56.8125 300.707 55.7245C300.003 54.6365 299.299 53.5645 298.595 52.5085C298.419 52.4925 298.227 52.4765 298.019 52.4605C297.827 52.4285 297.643 52.3965 297.467 52.3645V58.9405C297.467 59.0685 297.483 59.2125 297.515 59.3725C297.547 59.5165 297.595 59.6525 297.659 59.7805C297.739 59.9085 297.819 60.0205 297.899 60.1165C297.995 60.2125 298.107 60.2605 298.235 60.2605ZM297.467 45.4765V51.5725H297.587C297.715 51.5885 297.915 51.6045 298.187 51.6205C298.475 51.6205 298.827 51.6205 299.243 51.6205C299.579 51.6205 299.931 51.5725 300.299 51.4765C300.683 51.3645 301.035 51.1885 301.355 50.9485C301.691 50.6925 301.963 50.3645 302.171 49.9645C302.395 49.5645 302.507 49.0605 302.507 48.4525C302.507 47.8445 302.387 47.3485 302.147 46.9645C301.923 46.5805 301.603 46.2765 301.187 46.0525C300.787 45.8285 300.299 45.6765 299.723 45.5965C299.147 45.5165 298.515 45.4765 297.827 45.4765H297.467ZM308.892 60.2605H309.012C309.14 60.2605 309.252 60.2205 309.348 60.1405C309.444 60.0445 309.524 59.9325 309.588 59.8045C309.668 59.6765 309.724 59.5405 309.756 59.3965C309.804 59.2525 309.828 59.1165 309.828 58.9885V46.1485C309.828 46.0365 309.804 45.9085 309.756 45.7645C309.724 45.6205 309.668 45.4845 309.588 45.3565C309.524 45.2285 309.444 45.1245 309.348 45.0445C309.252 44.9485 309.14 44.9005 309.012 44.9005H308.892V44.6605H318.132V46.8925H317.892C317.86 46.5245 317.716 46.2045 317.46 45.9325C317.204 45.6445 316.804 45.5005 316.26 45.5005H311.436V51.5725H315.42C315.788 51.5725 316.092 51.4605 316.332 51.2365C316.588 51.0125 316.716 50.7485 316.716 50.4445H316.956V53.4445H316.716C316.716 53.1565 316.596 52.9085 316.356 52.7005C316.116 52.4925 315.804 52.3885 315.42 52.3885H311.436V59.6605H316.692C316.996 59.6605 317.26 59.5885 317.484 59.4445C317.708 59.3005 317.892 59.1325 318.036 58.9405C318.196 58.7325 318.308 58.5165 318.372 58.2925C318.452 58.0525 318.492 57.8525 318.492 57.6925H318.732V60.5005H308.892V60.2605ZM329.637 44.4205C330.885 44.4205 332.005 44.6605 332.997 45.1405C333.989 45.6045 334.829 46.2205 335.517 46.9885C336.221 47.7405 336.757 48.5965 337.125 49.5565C337.509 50.5165 337.701 51.4925 337.701 52.4845C337.701 53.2045 337.629 53.8685 337.485 54.4765C337.341 55.0845 337.141 55.6445 336.885 56.1565C336.629 56.6685 336.333 57.1405 335.997 57.5725C335.677 57.9885 335.325 58.3725 334.941 58.7245L335.733 59.6125C336.357 60.1885 337.037 60.7005 337.773 61.1485C338.509 61.6125 339.253 61.9965 340.005 62.3005C340.757 62.6205 341.501 62.8605 342.237 63.0205C342.973 63.1805 343.645 63.2605 344.253 63.2605C344.781 63.2605 345.341 63.2125 345.933 63.1165C346.541 63.0205 347.149 62.8765 347.757 62.6845C348.381 62.4925 348.997 62.2365 349.605 61.9165C350.213 61.6125 350.789 61.2445 351.333 60.8125L351.477 61.0285C350.949 61.6045 350.357 62.1085 349.701 62.5405C349.045 62.9885 348.357 63.3565 347.637 63.6445C346.917 63.9325 346.173 64.1485 345.405 64.2925C344.653 64.4525 343.909 64.5325 343.173 64.5325C342.437 64.5325 341.701 64.4685 340.965 64.3405C340.229 64.2125 339.493 63.9965 338.757 63.6925C338.021 63.3885 337.285 62.9725 336.549 62.4445C335.813 61.9325 335.077 61.2845 334.341 60.5005L333.525 59.6365C333.253 59.8125 332.941 59.9725 332.589 60.1165C332.253 60.2445 331.893 60.3565 331.509 60.4525C331.125 60.5485 330.733 60.6205 330.333 60.6685C329.933 60.7165 329.557 60.7405 329.205 60.7405C328.085 60.7405 327.045 60.5165 326.085 60.0685C325.141 59.6045 324.317 59.0045 323.613 58.2685C322.925 57.5165 322.381 56.6605 321.981 55.7005C321.581 54.7405 321.381 53.7565 321.381 52.7485C321.381 51.7245 321.565 50.7165 321.933 49.7245C322.301 48.7165 322.837 47.8205 323.541 47.0365C324.261 46.2525 325.133 45.6205 326.157 45.1405C327.181 44.6605 328.341 44.4205 329.637 44.4205ZM329.613 59.9005C330.685 59.8525 331.629 59.6125 332.445 59.1805C333.261 58.7325 333.933 58.1725 334.461 57.5005C335.005 56.8125 335.413 56.0605 335.685 55.2445C335.957 54.4285 336.093 53.6285 336.093 52.8445C336.093 51.9645 335.925 51.0765 335.589 50.1805C335.269 49.2685 334.813 48.4525 334.221 47.7325C333.645 46.9965 332.941 46.4045 332.109 45.9565C331.277 45.4925 330.357 45.2605 329.349 45.2605C328.357 45.2605 327.461 45.4845 326.661 45.9325C325.877 46.3645 325.213 46.9245 324.669 47.6125C324.125 48.3005 323.709 49.0685 323.421 49.9165C323.133 50.7485 322.989 51.5725 322.989 52.3885C322.989 53.2685 323.149 54.1565 323.469 55.0525C323.805 55.9485 324.269 56.7565 324.861 57.4765C325.453 58.1965 326.149 58.7805 326.949 59.2285C327.765 59.6765 328.653 59.9005 329.613 59.9005ZM340.976 44.6605H344.384V44.9005H344.264C344.136 44.9005 344.024 44.9485 343.928 45.0445C343.832 45.1245 343.744 45.2285 343.664 45.3565C343.6 45.4845 343.552 45.6205 343.52 45.7645C343.488 45.9085 343.472 46.0365 343.472 46.1485V55.6285C343.472 56.2525 343.536 56.8285 343.664 57.3565C343.792 57.8845 344.008 58.3405 344.312 58.7245C344.616 59.1085 345.016 59.4125 345.512 59.6365C346.008 59.8445 346.616 59.9485 347.336 59.9485C348.136 59.9485 348.776 59.8205 349.256 59.5645C349.736 59.3085 350.104 58.9805 350.36 58.5805C350.616 58.1645 350.784 57.7005 350.864 57.1885C350.944 56.6765 350.984 56.1725 350.984 55.6765V46.1485C350.984 46.0365 350.968 45.9085 350.936 45.7645C350.904 45.6205 350.848 45.4845 350.768 45.3565C350.704 45.2285 350.624 45.1245 350.528 45.0445C350.432 44.9485 350.328 44.9005 350.216 44.9005H350.096V44.6605H352.712V44.9005H352.592C352.464 44.9005 352.352 44.9485 352.256 45.0445C352.176 45.1245 352.096 45.2285 352.016 45.3565C351.952 45.4845 351.904 45.6205 351.872 45.7645C351.84 45.9085 351.824 46.0365 351.824 46.1485V55.6045C351.824 56.6445 351.696 57.5005 351.44 58.1725C351.184 58.8285 350.832 59.3485 350.384 59.7325C349.936 60.1165 349.408 60.3805 348.8 60.5245C348.208 60.6685 347.576 60.7405 346.904 60.7405C346.184 60.7405 345.512 60.6605 344.888 60.5005C344.28 60.3565 343.752 60.0925 343.304 59.7085C342.856 59.3245 342.504 58.8045 342.248 58.1485C341.992 57.4765 341.864 56.6365 341.864 55.6285V46.1485C341.864 46.0365 341.848 45.9085 341.816 45.7645C341.784 45.6205 341.728 45.4845 341.648 45.3565C341.584 45.2285 341.504 45.1245 341.408 45.0445C341.312 44.9485 341.208 44.9005 341.096 44.9005H340.976V44.6605ZM355.952 60.2605H356.072C356.2 60.2605 356.312 60.2205 356.408 60.1405C356.504 60.0445 356.584 59.9325 356.648 59.8045C356.728 59.6765 356.784 59.5405 356.816 59.3965C356.864 59.2525 356.888 59.1165 356.888 58.9885V46.1485C356.888 46.0365 356.864 45.9085 356.816 45.7645C356.784 45.6205 356.728 45.4845 356.648 45.3565C356.584 45.2285 356.504 45.1245 356.408 45.0445C356.312 44.9485 356.2 44.9005 356.072 44.9005H355.952V44.6605H365.192V46.8925H364.952C364.92 46.5245 364.776 46.2045 364.52 45.9325C364.264 45.6445 363.864 45.5005 363.32 45.5005H358.496V51.5725H362.48C362.848 51.5725 363.152 51.4605 363.392 51.2365C363.648 51.0125 363.776 50.7485 363.776 50.4445H364.016V53.4445H363.776C363.776 53.1565 363.656 52.9085 363.416 52.7005C363.176 52.4925 362.864 52.3885 362.48 52.3885H358.496V59.6605H363.752C364.056 59.6605 364.32 59.5885 364.544 59.4445C364.768 59.3005 364.952 59.1325 365.096 58.9405C365.256 58.7325 365.368 58.5165 365.432 58.2925C365.512 58.0525 365.552 57.8525 365.552 57.6925H365.792V60.5005H355.952V60.2605ZM378.28 56.2525C378.28 57.0525 378.12 57.7405 377.8 58.3165C377.48 58.8765 377.064 59.3325 376.552 59.6845C376.056 60.0365 375.488 60.2925 374.848 60.4525C374.224 60.6125 373.6 60.6925 372.976 60.6925C372.336 60.6925 371.784 60.6285 371.32 60.5005C370.856 60.3725 370.432 60.2525 370.048 60.1405C369.792 60.0605 369.56 59.9965 369.352 59.9485C369.144 59.8845 368.936 59.8525 368.728 59.8525V57.1165H368.968C368.968 57.7245 369.12 58.2125 369.424 58.5805C369.744 58.9325 370.112 59.2045 370.528 59.3965C370.944 59.5885 371.36 59.7165 371.776 59.7805C372.192 59.8285 372.496 59.8525 372.688 59.8525C373.376 59.8525 373.968 59.7565 374.464 59.5645C374.96 59.3565 375.368 59.0925 375.688 58.7725C376.008 58.4365 376.24 58.0685 376.384 57.6685C376.544 57.2685 376.624 56.8605 376.624 56.4445C376.624 55.9165 376.512 55.4765 376.288 55.1245C376.064 54.7565 375.768 54.4365 375.4 54.1645C375.048 53.8925 374.64 53.6605 374.176 53.4685C373.712 53.2765 373.24 53.0845 372.76 52.8925C372.216 52.6845 371.68 52.4685 371.152 52.2445C370.624 52.0205 370.152 51.7485 369.736 51.4285C369.32 51.0925 368.984 50.7005 368.728 50.2525C368.472 49.7885 368.344 49.2205 368.344 48.5485C368.344 47.8445 368.48 47.2365 368.752 46.7245C369.024 46.1965 369.384 45.7645 369.832 45.4285C370.296 45.0925 370.816 44.8445 371.392 44.6845C371.984 44.5085 372.584 44.4205 373.192 44.4205C373.608 44.4205 374 44.4525 374.368 44.5165C374.736 44.5645 375.088 44.6285 375.424 44.7085C375.696 44.7725 375.96 44.8285 376.216 44.8765C376.472 44.9085 376.72 44.9245 376.96 44.9245V47.3965H376.72C376.688 46.5645 376.36 46.0045 375.736 45.7165C375.112 45.4125 374.248 45.2605 373.144 45.2605C372.504 45.2605 371.976 45.3725 371.56 45.5965C371.16 45.8045 370.84 46.0685 370.6 46.3885C370.36 46.6925 370.192 47.0285 370.096 47.3965C370.016 47.7485 369.976 48.0605 369.976 48.3325C369.976 48.7805 370.072 49.1645 370.264 49.4845C370.472 49.8045 370.744 50.0845 371.08 50.3245C371.416 50.5645 371.8 50.7805 372.232 50.9725C372.68 51.1645 373.144 51.3485 373.624 51.5245C374.168 51.7325 374.72 51.9565 375.28 52.1965C375.84 52.4365 376.336 52.7325 376.768 53.0845C377.216 53.4365 377.576 53.8685 377.848 54.3805C378.136 54.8925 378.28 55.5165 378.28 56.2525ZM386.467 60.2605H386.587V60.5005H383.179V60.2605H383.299C383.427 60.2605 383.539 60.2125 383.635 60.1165C383.731 60.0205 383.811 59.9085 383.875 59.7805C383.955 59.6525 384.011 59.5165 384.043 59.3725C384.075 59.2125 384.091 59.0685 384.091 58.9405V45.5485H381.307C381.051 45.5485 380.827 45.6045 380.635 45.7165C380.443 45.8285 380.283 45.9725 380.155 46.1485C380.027 46.3085 379.931 46.4925 379.867 46.7005C379.803 46.8925 379.771 47.0845 379.771 47.2765H379.531V44.6605H390.307V47.2765H390.067C390.067 47.0845 390.035 46.8925 389.971 46.7005C389.907 46.4925 389.811 46.3085 389.683 46.1485C389.555 45.9725 389.395 45.8285 389.203 45.7165C389.011 45.6045 388.787 45.5485 388.531 45.5485H385.699V58.9405C385.699 59.0685 385.715 59.2125 385.747 59.3725C385.779 59.5165 385.827 59.6525 385.891 59.7805C385.971 59.9085 386.051 60.0205 386.131 60.1165C386.227 60.2125 386.339 60.2605 386.467 60.2605Z" fill="white"/>
<path d="M269.267 0.000488281L266.885 4.51449L264.58 9.02849C266.232 12.1979 267.692 14.9447 269.325 18.0565L274.069 9.02849L271.63 4.51449L269.267 0.000488281Z" fill="#0C0B10"/>
<path d="M293.438 15.3865L293.207 15.2521L292.977 15.0984L292.727 14.9639L292.497 14.8103L292.247 14.6758L292.016 14.5413L291.786 14.4069L291.536 14.2724L291.287 14.138L291.056 14.0227L290.806 13.8883L290.557 13.7538L290.326 13.6193L290.076 13.5041L289.827 13.3696L289.577 13.2544L289.327 13.1391L289.078 13.0239L288.828 12.8894L288.693 12.8318L286.484 17.6531L286.58 17.6915L286.811 17.7876L287.022 17.9028L287.253 18.0181L287.464 18.1141L287.675 18.2294L287.906 18.3446L288.117 18.4599L288.328 18.5559L288.54 18.6712L288.77 18.8056L288.981 18.9209L289.193 19.0361L289.404 19.1514L289.615 19.2666L289.827 19.4011L290.038 19.5164L290.249 19.6316L290.461 19.7661L290.672 19.9005L290.864 20.0158L293.63 15.5018L293.438 15.3865Z" fill="#0C0B10"/>
<path d="M283.119 10.6804L282.85 10.6035L282.581 10.5267L282.312 10.4306L282.043 10.3538L281.774 10.2962L281.486 10.2194L281.217 10.1425L280.948 10.0657L280.68 10.0081L280.391 9.93123L280.123 9.85439L279.854 9.79677L279.565 9.73914L279.297 9.68152L279.008 9.60468L278.739 9.54706L278.451 9.50864L278.182 9.45101L278.029 9.4126L277.068 14.6181L277.184 14.6373L277.433 14.6949L277.683 14.7334L277.914 14.791L278.163 14.8486L278.413 14.9062L278.663 14.9639L278.893 15.0215L279.143 15.0599L279.393 15.1367L279.623 15.1944L279.873 15.252L280.123 15.3288L280.353 15.3864L280.584 15.4441L280.833 15.5209L281.064 15.5977L281.313 15.6554L281.544 15.7322L281.794 15.809L281.89 15.8475L283.484 10.7956L283.388 10.7764L283.119 10.6804Z" fill="#0C0B10"/>
<path d="M260.504 9.39348L260.216 9.4511L259.928 9.50873L259.659 9.54714L259.371 9.60477L259.102 9.6816L258.814 9.73923L258.545 9.79685L258.257 9.85448L257.988 9.93131L257.719 10.0081L257.45 10.0658L257.162 10.1426L256.893 10.2194L256.624 10.2963L256.355 10.3539L256.086 10.4307L255.817 10.5268L255.529 10.6036L255.279 10.6804L255.164 10.7189L256.758 15.7707L256.835 15.7323L257.085 15.6555L257.315 15.5978L257.546 15.521L257.796 15.4442L258.045 15.3865L258.276 15.3289L258.526 15.2521L258.756 15.1944L259.006 15.1368L259.236 15.06L259.486 15.0216L259.736 14.9639L259.985 14.9063L260.216 14.8487L260.466 14.7911L260.715 14.7334L260.965 14.695L261.215 14.6374L261.445 14.599L261.58 14.5798L260.619 9.37427L260.504 9.39348Z" fill="#0C0B10"/>
<path d="M249.841 12.7741L249.591 12.8894L249.341 13.0238L249.091 13.1391L248.842 13.2543L248.592 13.3696L248.342 13.5041L248.093 13.6193L247.843 13.7538L247.612 13.8882L247.363 14.0227L247.113 14.1379L246.882 14.2724L246.633 14.4069L246.402 14.5413L246.153 14.6758L245.922 14.8102L245.672 14.9639L245.442 15.0984L245.211 15.252L245 15.3673L247.785 19.8813L247.958 19.766L248.169 19.6316L248.361 19.5163L248.573 19.4011L248.784 19.2666L248.995 19.1514L249.226 19.0361L249.437 18.9209L249.648 18.8056L249.86 18.6712L250.071 18.5559L250.282 18.4599L250.513 18.3446L250.724 18.2294L250.935 18.1141L251.166 18.0181L251.377 17.9028L251.608 17.7876L251.819 17.6915L252.05 17.5955L252.165 17.5378L249.956 12.7357L249.841 12.7741Z" fill="#0C0B10"/>
<path d="M269.921 98.7573L268.164 95.4268L266.463 92.0963C267.682 89.7579 268.759 87.7312 269.964 85.4353L273.464 92.0963L271.664 95.4268L269.921 98.7573Z" fill="#0C0B10"/>
<path d="M287.566 87.4051L287.396 87.5043L287.226 87.6177L287.041 87.7169L286.871 87.8303L286.687 87.9295L286.517 88.0287L286.347 88.1279L286.163 88.2271L285.978 88.3263L285.808 88.4114L285.624 88.5106L285.44 88.6098L285.27 88.709L285.086 88.794L284.901 88.8932L284.717 88.9782L284.533 89.0633L284.349 89.1483L284.164 89.2475L284.065 89.29L282.435 85.7328L282.506 85.7044L282.676 85.6336L282.832 85.5485L283.002 85.4635L283.158 85.3926L283.314 85.3076L283.484 85.2226L283.64 85.1375L283.796 85.0667L283.952 84.9816L284.122 84.8824L284.278 84.7974L284.434 84.7124L284.59 84.6273L284.745 84.5423L284.901 84.4431L285.057 84.358L285.213 84.273L285.369 84.1738L285.525 84.0746L285.667 83.9896L287.707 87.3201L287.566 87.4051Z" fill="#0C0B10"/>
<path d="M279.942 90.8776L279.743 90.9343L279.545 90.991L279.346 91.0619L279.148 91.1185L278.95 91.1611L278.737 91.2177L278.539 91.2744L278.34 91.3311L278.142 91.3736L277.929 91.4303L277.731 91.487L277.532 91.5295L277.32 91.5721L277.121 91.6146L276.909 91.6713L276.71 91.7138L276.498 91.7421L276.299 91.7846L276.186 91.813L275.477 87.9723L275.562 87.9581L275.747 87.9156L275.931 87.8872L276.101 87.8447L276.285 87.8022L276.469 87.7597L276.654 87.7172L276.824 87.6747L277.008 87.6463L277.192 87.5896L277.362 87.5471L277.546 87.5046L277.731 87.4479L277.901 87.4054L278.071 87.3629L278.255 87.3062L278.425 87.2495L278.609 87.207L278.779 87.1503L278.964 87.0936L279.035 87.0652L280.211 90.7926L280.14 90.8067L279.942 90.8776Z" fill="#0C0B10"/>
<path d="M263.756 91.827L263.544 91.7845L263.331 91.742L263.133 91.7136L262.92 91.6711L262.722 91.6144L262.509 91.5719L262.311 91.5294L262.098 91.4869L261.9 91.4302L261.701 91.3735L261.503 91.331L261.29 91.2743L261.092 91.2176L260.894 91.1609L260.695 91.1184L260.497 91.0617L260.298 90.9908L260.086 90.9342L259.901 90.8775L259.816 90.8491L260.993 87.1218L261.049 87.1501L261.234 87.2068L261.404 87.2493L261.574 87.306L261.758 87.3627L261.942 87.4052L262.112 87.4477L262.297 87.5044L262.467 87.547L262.651 87.5895L262.821 87.6462L263.005 87.6745L263.189 87.717L263.374 87.7595L263.544 87.8021L263.728 87.8446L263.912 87.8871L264.096 87.9154L264.281 87.958L264.451 87.9863L264.55 88.0005L263.841 91.8412L263.756 91.827Z" fill="#0C0B10"/>
<path d="M255.862 89.3327L255.678 89.2477L255.494 89.1485L255.31 89.0635L255.125 88.9784L254.941 88.8934L254.757 88.7942L254.573 88.7092L254.389 88.6099L254.218 88.5107L254.034 88.4115L253.85 88.3265L253.68 88.2273L253.496 88.1281L253.326 88.0289L253.141 87.9297L252.971 87.8305L252.787 87.7171L252.617 87.6179L252.447 87.5045L252.291 87.4195L254.346 84.089L254.474 84.174L254.629 84.2732L254.771 84.3582L254.927 84.4433L255.083 84.5425L255.239 84.6275L255.409 84.7125L255.565 84.7976L255.721 84.8826L255.877 84.9818L256.033 85.0669L256.188 85.1377L256.358 85.2227L256.514 85.3078L256.67 85.3928L256.84 85.4637L256.996 85.5487L257.166 85.6337L257.322 85.7046L257.492 85.7755L257.577 85.818L255.947 89.3611L255.862 89.3327Z" fill="#0C0B10"/>
</svg>
