<?xml version="1.0" encoding="utf-8" ?>
<svg xmlns="http://www.w3.org/2000/svg" xmlns:xlink="http://www.w3.org/1999/xlink" width="121" height="81">
	<path fill="white" transform="scale(0.157552 0.159449)" d="M655.177 297.114C655.496 296.984 655.525 296.956 655.909 296.889C656.819 296.732 657.519 297.053 658.253 297.543C658.67 298.549 658.574 299.049 658.312 300.091L657.188 300.693C656.65 300.857 656.083 300.861 655.524 300.905C654.598 300.382 654.386 300.275 653.864 299.364C654.03 297.957 654.068 298.012 655.177 297.114Z"/>
	<path fill="#B5B5B5" transform="scale(0.157552 0.159449)" d="M396.057 305.362C396.419 305.243 396.75 305.136 397.129 305.088C398.293 304.94 399.455 305.177 400.312 306.032C401.046 306.764 401.265 307.681 401.062 308.689C400.789 310.049 400.255 310.366 399.188 311.08L397.875 311.488C396.665 311.291 395.958 311.087 395.016 310.287C394.542 309.435 394.044 308.619 394.28 307.612C394.537 306.513 395.161 305.974 396.057 305.362Z"/>
	<path fill="#B5B5B5" transform="scale(0.157552 0.159449)" d="M484.389 305.362C485.01 305.18 485.727 305.043 486.375 305.078C487.475 305.138 488.258 305.75 489.008 306.487C489.346 307.657 489.578 308.29 489.098 309.486C488.676 310.535 487.875 310.78 486.938 311.271C485.596 311.465 484.798 311.461 483.668 310.611C482.809 309.965 482.603 308.984 482.399 307.987C482.801 306.647 483.247 306.154 484.389 305.362Z"/>
	<path fill="white" transform="scale(0.157552 0.159449)" d="M453.089 302.738C453.375 302.574 453.413 302.526 453.789 302.459C455.408 302.17 456.434 302.726 457.5 303.783L459.75 302.582C460.88 302.63 461.08 302.477 461.911 303.3L461.782 305.24C460.838 306.494 460.28 305.698 459 305.992C458.648 306.072 458.025 306.565 457.688 306.764L457.129 309.143L457.314 314.709L453.037 314.821L453.089 302.738Z"/>
	<path fill="white" transform="scale(0.157552 0.159449)" d="M327.786 302.738L328.212 302.603C329.72 302.338 331.023 302.669 332.257 303.517L332.438 303.643C333.506 302.875 334.176 302.619 335.455 302.519C336.018 302.475 336.105 302.756 336.509 303.113C336.589 304.26 336.735 304.799 336.188 305.877L333.938 305.887C332.543 306.667 332.521 306.771 331.899 308.254L331.931 314.787L327.616 314.61L327.786 302.738Z"/>
	<path fill="white" transform="scale(0.157552 0.159449)" d="M380.38 297.114C381.523 296.883 382.661 297.062 383.812 297.167C385.098 299.159 384.36 311.264 384.368 314.36L383.438 314.768C382.385 314.665 381.31 314.731 380.254 314.752C379.825 311.007 380.038 307.134 380.014 303.367C380.002 301.479 379.643 298.863 380.38 297.114Z"/>
	<path fill="white" transform="scale(0.157552 0.159449)" d="M532.009 302.645C533.729 302.429 536.146 302.239 537.738 302.925C538.213 303.776 537.976 304.804 537.883 305.737L537.187 306.194L535.47 305.318C534.014 305.509 533.691 305.625 532.506 306.487C532.038 307.626 531.661 308.617 532.057 309.861C532.316 310.671 532.561 311.152 533.315 311.536C534.699 312.243 536.247 311.838 537.646 311.361C538.16 312.495 538.05 313.26 537.652 314.36C535.822 315.037 533.001 315.04 531.155 314.412C529.751 313.935 528.795 312.815 528.188 311.51C527.442 309.909 527.358 307.82 528.048 306.181C528.797 304.4 530.328 303.413 532.009 302.645Z"/>
	<path fill="white" transform="scale(0.157552 0.159449)" d="M520.23 302.645C522.091 302.445 523.94 302.354 525.75 302.895C526.464 303.958 526.405 304.248 526.419 305.55L525.75 306.128C525.168 305.876 524.505 305.557 523.875 305.462C522.496 305.253 521.857 305.673 520.823 306.487C520.179 308.039 520.236 309.173 520.742 310.758C520.879 311.187 521.508 311.522 521.911 311.688C522.986 312.13 523.985 311.855 525.018 311.489C525.58 311.29 525.771 311.521 526.309 311.736C526.5 312.8 526.417 313.324 525.938 314.291C523.973 314.999 521.291 315.078 519.293 314.467C517.918 314.046 517.159 312.847 516.543 311.635C515.754 310.083 515.648 308.361 516.251 306.721C517.001 304.682 518.285 303.51 520.23 302.645Z"/>
	<path fill="white" transform="scale(0.157552 0.159449)" d="M466.305 302.64C468.044 302.37 470.869 302.132 472.362 303.113C472.48 304.195 472.778 304.904 472.125 305.833L470.354 305.243C469.027 304.895 468.256 305.037 467.119 305.737L467.33 306.487L471.188 308.189C472.018 308.655 472.972 309.265 473.193 310.24C473.38 311.063 473.103 312.401 472.603 313.086C471.776 314.22 470.094 314.492 468.798 314.72C467.115 314.853 465.372 314.654 463.688 314.543L463.199 313.985C463.208 312.995 462.998 312.164 463.688 311.41C464.538 311.824 465.729 312.175 466.688 312.243C467.717 312.316 468.627 312.228 469.397 311.548C467.949 309.618 465.17 309.698 463.488 307.799C463.137 306.563 463.071 306.066 463.527 304.8C463.934 303.67 465.306 303.143 466.305 302.64Z"/>
	<path fill="white" transform="scale(0.157552 0.159449)" d="M351.644 302.738C352.568 302.563 354.553 302.391 355.375 302.842C356.281 303.339 357.785 310.163 358.205 311.584C358.702 309.017 359.234 304.602 360.938 302.603C362.108 302.558 363.341 302.4 364.475 302.738C364.736 304.03 363.854 305.514 363.364 306.702L360.129 314.763L355.713 314.736C354.465 312.301 353.764 309.612 352.825 307.049C352.316 305.661 351.387 304.239 351.644 302.738Z"/>
	<path transform="scale(0.157552 0.159449)" d="M159.783 319.234C160.031 319.179 160.167 319.134 160.408 319.127C161.569 319.093 162.536 319.935 163.312 320.69C164.342 322.982 164.417 329.29 163.754 331.743C163.392 333.079 162.539 333.292 161.438 333.882L159.75 334.01C158.892 333.951 158.255 333.317 157.698 332.731C156.67 330.454 156.539 323.536 157.367 321.237C157.82 319.977 158.661 319.755 159.783 319.234Z"/>
	<path transform="scale(0.157552 0.159449)" d="M118.449 319.234C118.98 319.174 119.565 319.136 120.085 319.285C121.185 319.6 121.835 320.318 122.378 321.274C122.828 324.131 123.278 329.17 122.371 331.898C121.907 333.292 121.022 333.439 119.812 334.008C119.435 334.031 119.065 334.061 118.688 334.018C117.657 333.903 117.116 333.507 116.469 332.731C115.565 330.377 115.018 324.575 115.711 322.128C116.169 320.509 117.076 319.972 118.449 319.234Z"/>
	<path fill="white" transform="scale(0.157552 0.159449)" d="M409.984 298.239C412.813 297.585 416.75 298.099 419.69 298.111C421.082 298.116 422.72 297.868 423.938 298.54C424.017 299.584 424.016 300.253 423.643 301.238C422.102 301.64 420.416 301.264 418.853 301.08L418.937 309.58C418.946 311.014 419.337 313.693 418.498 314.772L414.583 314.578L414.574 301.299C413.033 301.355 411.092 301.643 409.688 300.967C409.508 299.865 409.432 299.236 409.984 298.239Z"/>
	<path fill="white" transform="scale(0.157552 0.159449)" d="M314.369 298.239C315.704 297.921 317.425 298.098 318.814 298.093L327.706 298.152C328.137 299.154 327.852 300.163 327.748 301.238C326.85 301.733 324.286 301.263 323.19 301.173L323.24 310.142L323.223 314.758L318.677 314.556L318.65 301.351C317.368 301.387 315.237 301.747 314.216 301.051C314.025 299.794 313.94 299.416 314.369 298.239Z"/>
	<path fill="white" transform="scale(0.157552 0.159449)" d="M440.654 302.363L441.357 302.315C441.565 302.422 441.846 302.445 441.981 302.636C442.625 303.551 441.575 309.589 442.596 311.464C443.629 311.892 443.825 311.857 444.938 311.666C446.281 310.182 445.86 304.826 445.916 302.689C446.659 302.149 449.029 302.369 450.008 302.36L450.032 308.365L450.015 314.818C448.586 314.849 446.994 314.827 445.708 314.158L445.5 314.042C445.047 314.239 444.614 314.401 444.134 314.52C442.764 314.862 440.706 315.134 439.474 314.251C438.65 313.659 438.04 311.656 437.952 310.693C437.785 308.854 437.577 303.846 438.562 302.597L440.654 302.363Z"/>
	<path fill="white" transform="scale(0.157552 0.159449)" d="M676.219 302.738C676.436 302.63 676.482 302.59 676.758 302.547C678.31 302.302 679.387 302.827 680.625 303.649C681.643 303.032 682.541 302.473 683.766 302.466C685.025 302.458 686.294 302.768 687.188 303.711C688.901 305.518 688.411 312.181 688.372 314.734L684.221 314.907L684.004 310.517L683.995 307.237C683.861 306.255 683.603 305.958 682.861 305.362C681.891 305.49 681.534 305.406 680.812 306.097C679.815 308.393 680.457 312.3 680.458 314.815L676.157 314.785L676.219 302.738Z"/>
	<path fill="white" transform="scale(0.157552 0.159449)" d="M369.629 302.588C371.221 302.503 373.098 302.347 374.625 302.91C375.755 303.326 376.944 304.262 377.38 305.411C377.825 306.58 378.229 308.606 377.72 309.773C375.083 310.509 371.891 309.362 369.188 309.855C369.423 310.69 369.591 310.867 370.299 311.396C371.72 312.459 373.293 312.192 374.932 312.005L376.548 311.361L377.062 311.664L376.821 313.985L376.506 314.227C375.033 315.259 370.757 314.881 369.048 314.46C367.759 314.143 366.571 313.41 365.933 312.219C365.022 310.516 364.824 308.247 365.486 306.414C366.223 304.374 367.779 303.501 369.629 302.588Z"/>
	<path fill="white" transform="scale(0.157552 0.159449)" d="M342.145 302.616L343.244 302.55C345.108 302.463 347.499 302.474 348.926 303.851C350.617 305.481 350.02 312.409 350.028 314.851C348.652 314.732 347.253 314.327 345.938 314.215C343.144 313.977 341.745 315.641 338.812 314.001C337.772 312.937 337.543 312.074 337.516 310.611C339.426 305.375 343.448 308.819 346.167 306.487L345.811 305.737C343.098 304.649 341.264 306.152 338.625 305.973C338.272 305.039 338.405 304.811 338.618 303.863C339.821 302.805 340.587 302.867 342.145 302.616Z"/>
	<path fill="white" transform="scale(0.157552 0.159449)" d="M633.502 302.663C635.093 302.387 637.734 302.331 639.186 303.083C640.008 303.509 640.964 304.563 641.186 305.488C641.583 307.145 641.846 313.337 641.062 314.704C639.837 314.673 638.653 314.715 637.514 314.193C636.928 313.925 635.015 314.55 634.3 314.684C632.746 314.975 631.324 314.915 629.977 313.985L629.657 313.61C628.993 312.746 628.732 311.484 628.951 310.424C629.869 305.976 634.986 308.189 637.482 306.487C637.281 306.171 637.125 305.758 636.785 305.583C635.386 304.862 633.066 305.369 631.621 305.853C630.94 306.081 630.66 306.157 629.963 305.974C629.603 305.166 629.757 304.679 629.95 303.863C631.112 302.741 631.928 302.878 633.502 302.663Z"/>
	<path fill="white" transform="scale(0.157552 0.159449)" d="M602.904 302.61C604.279 302.541 605.722 302.429 607.091 302.595C609.319 302.863 610.477 304.001 611.812 305.699C612.09 307.222 612.481 309.817 611.784 311.237L611.614 311.548C610.726 313.2 609.832 313.772 608.176 314.609C606.225 314.857 604.404 314.961 602.474 314.479C601.319 314.19 600.445 313.552 599.874 312.502C598.876 310.666 598.39 308.257 599.136 306.234C599.844 304.316 601.17 303.484 602.904 302.61ZM605.367 305.362C604.143 305.871 603.748 305.931 603.248 307.237C602.859 308.253 603.045 309.797 603.464 310.799C603.612 311.152 603.849 311.357 604.125 311.608L605.812 311.923C606.654 311.565 607.168 311.562 607.536 310.691C608.018 309.552 608.214 308.201 607.758 307.016C607.526 306.414 607.028 305.963 606.562 305.536L605.367 305.362Z"/>
	<path fill="white" transform="scale(0.157552 0.159449)" d="M664.772 302.612C666.222 302.44 668.075 302.323 669.492 302.687C670.972 303.066 672.394 303.948 673.1 305.336C674.005 307.117 674.221 309.347 673.479 311.229C672.779 313.004 671.348 313.882 669.658 314.548C668.179 314.766 666.739 314.988 665.25 314.74C663.63 314.471 662.358 313.761 661.431 312.353C660.484 310.917 660.083 308.39 660.562 306.726C661.208 304.486 662.855 303.582 664.772 302.612ZM665.797 305.737C665.04 306.69 664.617 307.497 664.688 308.748C664.759 310.017 665.081 310.782 665.958 311.657C666.918 311.86 667.508 312.009 668.438 311.642C669.35 310.763 669.707 310.054 669.681 308.737C669.659 307.635 669.178 306.44 668.438 305.648C667.39 305.321 666.84 305.441 665.797 305.737Z"/>
	<path fill="white" transform="scale(0.157552 0.159449)" d="M426.592 302.627C428.227 302.45 430.118 302.364 431.729 302.704C433.02 302.977 434.436 303.919 435.146 305.052C436.08 306.543 436.389 308.382 435.931 310.084C435.321 312.357 434.229 313.378 432.24 314.487C430.275 314.79 428.429 315.011 426.465 314.539C425.096 314.21 424.221 313.398 423.512 312.21C422.563 310.623 422.253 308.725 422.722 306.934C423.306 304.703 424.741 303.742 426.592 302.627ZM429.291 305.362C428.25 305.707 427.82 305.679 427.273 306.678C426.486 308.115 426.889 309.449 427.312 310.905C427.937 311.589 428.284 311.744 429.188 311.92C430.328 311.657 430.622 311.639 431.438 310.827C431.782 309.315 431.988 307.694 431.088 306.31C430.558 305.496 430.186 305.55 429.291 305.362Z"/>
	<path fill="white" transform="scale(0.157552 0.159449)" d="M543.619 302.625C545.254 302.426 547.358 302.271 548.924 302.832C550.304 303.327 551.53 304.185 552.148 305.551C552.959 307.339 553.127 309.559 552.342 311.394C551.594 313.142 550.192 313.89 548.521 314.594C546.797 314.851 544.883 315.051 543.188 314.524C541.932 314.134 540.61 313.083 540.016 311.923C539.191 310.311 538.982 308.007 539.592 306.298C540.272 304.392 541.907 303.48 543.619 302.625ZM544.729 305.737C543.764 306.917 543.548 307.904 543.733 309.419C543.876 310.595 544.102 310.793 544.861 311.656C545.728 311.83 546.475 312.089 547.312 311.685C548.19 310.672 548.744 309.735 548.621 308.326C548.539 307.399 548.059 306.624 547.564 305.862C546.388 305.321 545.963 305.511 544.729 305.737Z"/>
	<path fill="white" transform="scale(0.157552 0.159449)" d="M647.985 299.364L648.948 299.249C649.862 300.08 649.307 301.456 649.688 302.654L658.491 302.762L658.441 314.737L654.184 314.739L654.29 305.26L650.812 305.412C650.064 305.339 650.043 305.343 649.402 305.737C649.46 307.506 649.168 310.137 650.062 311.618C651.092 311.771 651.962 311.849 652.829 312.486C652.82 313.551 652.924 313.833 652.29 314.723C650.326 314.973 647.972 314.999 646.125 314.214C644.459 311.994 645.9 308.038 645.188 305.462C644.259 305.47 643.653 305.321 642.79 304.987L642.719 303.675C643.411 302.774 643.737 302.746 644.778 302.363C645.564 300.525 646.189 300.097 647.985 299.364Z"/>
	<path fill="white" transform="scale(0.157552 0.159449)" d="M504.362 298.239C505.676 297.89 507.149 298.076 508.5 298.12C510.669 299.701 513.688 310.756 515.098 313.879L515.233 314.173L514.875 314.827L511.01 314.485C510.072 313.862 509.523 311.866 509.08 310.824L503.809 310.904L502.595 314.654L497.859 314.781C499.918 309.272 501.695 303.48 504.362 298.239Z"/>
	<path fill="white" transform="scale(0.157552 0.159449)" d="M622.673 297.114C623.821 296.973 625.498 296.814 626.525 297.374C626.968 299.258 626.641 301.474 626.629 303.415L626.626 314.798C625.201 314.703 623.7 314.331 622.312 314.287C620.913 314.243 619.158 314.751 617.708 314.87C616.086 314.362 615.138 313.866 614.344 312.342C613.439 310.604 613.387 308.19 614.019 306.349C614.477 305.016 615.39 303.503 616.722 302.895C618.645 302.018 620.62 302.612 622.505 303.246C622.365 301.471 621.759 298.662 622.673 297.114ZM620.058 305.362C618.988 305.709 618.811 305.705 618.257 306.759C617.668 307.878 617.915 309.768 618.224 310.931C619.281 311.739 619.479 311.777 620.812 311.886C621.774 311.159 622.338 310.504 622.483 309.228C622.623 307.999 622.334 306.994 621.724 305.925C621.126 305.623 620.745 305.358 620.058 305.362Z"/>
	<path fill="white" transform="scale(0.157552 0.159449)" d="M577.368 302.738L577.718 302.65C579.336 302.415 580.348 302.747 581.625 303.64C582.555 303.182 583.523 302.709 584.563 302.575C585.583 302.443 586.83 302.624 587.671 303.247L587.873 303.405L588.28 303.703L588.562 303.926C589.352 303.442 590.16 302.944 591.059 302.692C592.868 302.184 594.137 302.532 595.688 303.454C597.552 306.314 596.969 311.404 597.016 314.779L592.595 314.675C592.593 312.347 593.196 307.296 591.75 305.514C590.601 305.485 590.492 305.441 589.576 306.112C588.677 308.473 589.21 312.184 589.198 314.772L585.088 314.805C585.054 312.411 585.637 307.168 583.962 305.392L582.562 305.553C580.672 307.564 581.51 312.2 581.576 314.87L577.402 314.782C576.87 311.319 576.842 306.201 577.368 302.738Z"/>
	<path fill="white" transform="scale(0.157552 0.159449)" d="M555.111 302.738C555.32 302.633 555.374 302.59 555.637 302.55C557.248 302.308 558.265 302.727 559.5 303.64C560.336 303.201 561.368 302.636 562.312 302.534C563.694 302.385 564.993 302.804 566.067 303.66L566.438 303.967C567.426 303.266 568.264 302.746 569.492 302.54C571.254 302.245 572.302 302.685 573.689 303.697C575.324 306.263 574.713 311.798 574.669 314.809L570.404 314.742C570.402 312.086 570.845 308.188 569.972 305.737C569.06 305.41 568.585 305.585 567.641 305.737C566.382 307.362 566.982 312.752 567.007 314.959L562.786 314.66C562.026 312.87 562.717 309.361 562.484 307.263C562.368 306.227 562.428 306.083 561.562 305.393L560.062 305.619C558.632 307.589 559.352 312.354 559.416 314.784L555.067 314.779L555.111 302.738Z"/>
	<path transform="scale(0.157552 0.159449)" d="M461.124 257.731L461.918 257.683C464.058 257.642 467.343 257.638 468.993 259.18C470.136 262.024 466.252 261.742 465.661 264.31C464.829 267.93 464.9 272.155 464.624 275.87C464.52 277.271 464.089 279.022 464.773 280.244C470.655 282.084 470.296 277.559 474.188 275.617C475.075 275.821 475.607 276.096 476.321 276.659C476.564 277.255 476.697 277.819 476.73 278.465C476.84 280.637 475.693 283.6 474.188 285.156L473.999 285.271C472.963 285.826 453.616 285.665 452.005 285.084C451.157 284.778 451.204 284.577 450.832 283.805C450.979 281.729 452.068 281.223 453.562 279.872C455.078 275.638 455.454 270.936 455.882 266.469C455.937 265.896 456.274 264.126 456.093 263.666C455.422 261.967 453.711 262.203 453.373 259.999C455.507 257.639 458.136 257.929 461.124 257.731Z"/>
	<path transform="scale(0.157552 0.159449)" d="M404.905 257.728C406.108 257.666 407.234 257.681 408.426 257.888C410.352 258.225 411.141 258.383 412.27 259.999C411.791 261.721 411.134 262.118 409.858 263.33L412.503 274.071L416.86 263.346L415.82 261.686C415.223 260.485 415.166 260.088 415.575 258.874C416.049 258.579 416.554 258.28 417.094 258.124C419.629 257.389 423.47 257.671 425.745 258.938C426.028 259.937 426.012 260.119 425.733 261.123C423.058 262.968 422.235 265.021 420.843 267.836L415.938 277.817C415.016 279.678 414.143 281.766 412.868 283.415L412.559 283.805C411.554 285.095 410.821 285.453 409.312 285.906C408.227 285.689 407.407 285.674 406.576 284.853C405.89 284.175 405.503 282.692 405.174 281.795C403.475 277.16 402.423 272.121 401.08 267.354C400.86 266.576 400.6 264.665 400.173 264.054C399.66 263.32 398.399 262.492 397.695 261.873C397.407 260.861 397.49 260.755 397.812 259.802C398.514 258.987 399.136 258.581 400.176 258.336L404.905 257.728Z"/>
	<path transform="scale(0.157552 0.159449)" d="M320.164 257.749C324.558 258.447 329.665 258.16 334.125 258.061C335.573 258.029 337.767 257.573 339.118 257.943C340.091 258.209 340.85 259.183 341.265 260.054C342.069 261.743 342.601 264.106 341.749 265.875C341.078 267.268 340.317 267.396 339 267.898C337.122 267.197 336.412 265.514 335.571 263.736C335.358 263.285 335.074 263.24 334.649 262.998C334.401 263.227 334.178 263.425 334.049 263.748C332.792 266.897 332.95 271.832 332.663 275.272C332.608 275.923 332.045 279.834 332.252 280.192C332.99 281.463 334.744 281.245 335.276 283.055L334.688 284.01C334.013 284.526 333.335 284.871 332.519 285.098C329.77 285.862 321.998 286.372 319.494 284.683C318.747 284.179 318.792 283.667 318.631 282.868C319.353 281.613 320.543 281.067 321.756 280.358C322.561 278.714 322.607 276.381 322.868 274.561C323.485 270.266 324.17 266.251 323.902 261.882C322.562 263.542 321.277 266.909 319.298 267.664C318.64 267.914 317.93 267.885 317.295 267.583C316.462 267.187 316.127 266.696 315.837 265.81C315.396 264.462 316.057 262.479 316.633 261.231C317.376 259.619 318.494 258.379 320.164 257.749Z"/>
	<path transform="scale(0.157552 0.159449)" d="M540.921 257.749C541.912 257.708 542.959 258.013 543.973 258.026L555.435 258.046C556.695 258.007 559.38 257.538 560.467 258.077C561.41 258.545 562.203 259.788 562.544 260.755C563.251 262.761 563.419 264.61 562.501 266.559C562.08 267.043 561.703 267.357 561.083 267.545C557.182 268.727 558.185 264.377 555.75 263.041L555.097 263.373C553.935 267.872 553.715 272.74 553.442 277.371C553.41 277.91 553.105 279.802 553.279 280.246C553.678 281.264 555.683 281.424 556.204 283.055L555.562 284.1L555.326 284.247C552.042 286.093 545.47 286.252 541.875 285.233C540.448 284.828 540.189 284.537 539.508 283.243C540.014 281.726 541.424 281.067 542.736 280.246C543.527 278.327 543.636 276.008 543.906 273.958C544.443 269.883 545.051 266 544.813 261.876C543.556 263.462 542.659 265.989 541.102 267.241C540.333 267.86 539.234 267.97 538.312 267.662C537.622 267.431 537.263 266.947 536.989 266.318C536.283 264.694 536.683 263.457 537.296 261.883C538.011 260.047 539.083 258.554 540.921 257.749Z"/>
	<path transform="scale(0.157552 0.159449)" d="M261.056 196.264C261.772 196.227 262.303 196.482 262.968 196.718C263.158 197.003 263.328 197.23 263.388 197.576C264.086 201.61 263.593 206.541 263.596 210.683L263.607 238.696L263.6 289.935C263.598 298.527 263.988 307.322 263.536 315.893C263.474 317.066 263.209 317.9 262.509 318.859C261.743 319.086 261.628 319.066 260.852 318.859C260.098 317.484 260.13 315.737 260.061 314.198L259.994 273.136L260.055 203.847C260.078 201.806 259.616 197.672 261.056 196.264Z"/>
	<path transform="scale(0.157552 0.159449)" d="M663.932 257.627C665.371 257.509 666.646 257.998 668.062 258.06C669.769 258.135 671.524 257.382 673.085 258.477C674.472 259.449 675.057 260.986 675.4 262.567C675.669 263.807 674.835 265.001 674.186 265.997C669.999 268.333 669.214 262.826 665.812 262.484L664.517 263.748L664.623 264.872C666.232 266.874 668.73 267.558 670.795 269.004C672.438 270.154 674.195 272.282 674.489 274.285C674.865 276.845 674.412 279.252 672.763 281.31C670.042 284.706 665.833 285.5 661.74 285.912C658.669 285.597 655.355 285.205 653.062 282.9C651.548 281.377 650.994 279.414 651 277.324C651.005 275.864 651.7 275.225 652.688 274.249C657.456 272.754 656.852 279.175 660.375 280.821C662.181 280.817 662.35 280.582 663.685 279.494C663.414 276.244 658.492 274.417 656.471 272.143C655.68 271.251 655.033 269.665 654.72 268.516C654.102 266.25 654.595 263.835 655.836 261.852C657.591 259.049 660.941 258.229 663.932 257.627Z"/>
	<path transform="scale(0.157552 0.159449)" d="M430.662 258.038L441.993 258.109C443.853 258.092 446.87 257.354 448.451 258.35C449.147 258.788 449.812 260.143 449.996 260.942L450.074 261.311C450.21 261.896 450.38 262.491 450.401 263.096C450.452 264.581 449.668 265.531 448.688 266.505C445.657 266.846 445.867 263.712 443.311 262.889C441.859 262.421 440.644 262.765 439.312 263.353C438.434 264.934 438.505 267.208 438.36 268.996L438.938 269.234C440.449 268.534 440.426 266.771 441.623 265.825C442.287 265.299 442.703 265.544 443.438 265.697C444.002 266.193 444.481 266.647 444.674 267.398C445.309 269.872 445.395 273.93 443.949 276.12C443.283 277.127 442.543 277.578 441.375 277.787C440.082 276.906 439.766 275.265 439.084 273.87L438.328 273.87L438.058 274.454C437.607 275.924 437.582 279.248 438.188 280.611C439.798 280.955 442.086 281.023 443.399 279.869C444.921 278.532 445.432 276.733 447.375 275.784C448.578 275.984 448.802 276.096 449.748 276.869C450.268 278.073 450.22 279.534 449.977 280.806C449.724 282.127 448.187 284.956 446.911 285.458C446.285 285.704 426.021 285.561 425.062 285.316C424.251 284.51 424.201 284.367 423.969 283.243C424.817 281.876 425.847 280.857 426.995 279.746C428.029 275.761 428.672 271.57 429.097 267.476C429.183 266.643 429.55 264.894 429.366 264.114C429.13 263.116 427.407 262.055 427.063 260.818C426.918 260.293 427.051 259.804 427.391 259.369C428.212 258.317 429.452 258.286 430.662 258.038Z"/>
	<path transform="scale(0.157552 0.159449)" d="M504.46 257.705C505.681 257.754 507.172 258.283 508.312 258.722C509.449 259.159 510.255 259.805 510.752 260.936C510.689 262.246 510.701 262.408 509.902 263.432C508.292 263.827 507.134 263.178 505.688 262.54C505.034 262.717 504.429 262.741 504.04 263.373C503.451 264.327 503.7 264.865 504.091 265.774C504.959 266.287 505.405 266.559 505.817 267.497L505.335 268.621C504.472 269.205 503.673 269.558 502.688 269.889C501.794 269.579 500.993 269.205 500.036 269.371C499.384 270.348 498.942 271.463 498.836 272.639C498.623 275.002 499.361 277.366 500.985 279.119C501.898 280.105 503.624 280.851 504.977 280.84C506.372 280.829 507.234 280.434 508.238 279.494C508.675 278.442 508.743 277.807 508.568 276.682L507.938 276.226L504.375 276.837L503.438 276.123L503.308 274.62C504.852 270.661 510.158 269.518 513.787 267.986C514.768 267.572 516.061 267.158 516.734 266.311C517.417 265.453 517.654 265.041 517.526 263.935L516.938 263.481C515.863 263.611 515.041 263.661 513.99 263.373L513.763 262.623C514.032 261.959 514.321 261.167 514.799 260.623C515.933 259.336 517.501 258.934 519.128 258.791L519.562 258.756L521.351 259.34C522.475 259.83 523.689 261.113 524.087 262.248C524.801 264.283 524.597 266.476 523.59 268.369C521.978 271.399 519.106 272.445 516.05 273.441L516.763 275.37C517.168 276.406 517.497 277.185 517.19 278.311C516.48 280.908 513.996 282.87 511.685 284.005C507.278 286.17 501.554 286.423 496.942 284.828C493.65 283.689 491.164 281.656 489.686 278.479C487.603 273.999 488.697 269.093 492.938 266.435C493.487 266.091 495.424 265.359 495.731 264.954C496.148 264.404 496.291 262.389 496.605 261.595C497.163 260.184 498.665 259.055 500.034 258.483C501.397 257.914 503.003 257.842 504.46 257.705Z"/>
	<path transform="scale(0.157552 0.159449)" d="M578.274 257.676C581.031 257.464 584.351 257.918 586.688 259.542C588.989 261.141 590.318 263.217 590.844 265.95C591.579 269.762 590.365 274.823 588.172 278.006C585.003 282.608 580.978 284.833 575.567 285.856C572.646 285.823 569.381 285.64 566.854 284.003C564.808 282.676 563.219 280.443 562.733 278.042C561.827 273.565 562.949 268.723 565.508 264.961C568.715 260.246 572.917 258.672 578.274 257.676ZM577.156 262.998C575.057 264.363 574.53 266.48 574.035 268.809C573.224 272.625 572.777 275.865 573.659 279.681C574.405 280.433 574.547 280.537 575.572 280.783L576.188 280.601C577.955 279.59 578.522 277.916 579.026 276.05C579.836 273.05 581.347 266.453 579.636 263.762C579.193 263.065 578.806 262.986 578.076 262.694L577.156 262.998Z"/>
	<path transform="scale(0.157552 0.159449)" d="M384.706 257.749C384.977 257.677 385.027 257.655 385.348 257.624C394.435 256.765 395.048 270.507 396.57 276.909C396.785 277.811 396.95 279.454 397.371 280.236C397.642 280.738 399.181 281.702 399.695 282.118C399.752 282.981 399.861 283.255 399.319 283.978C398.544 285.011 397.338 285.391 396.107 285.554C393.16 285.946 388.096 286.271 385.688 284.473C385.28 282.058 386.697 282.05 387.831 280.244L387.568 279.494C387.159 279.264 386.721 279.06 386.25 279.005C384.296 278.775 380.708 278.675 379.109 279.869L379.165 280.806C379.677 281.253 380.253 281.703 380.655 282.254C381.199 282.999 380.949 283.402 380.812 284.257C380.281 284.686 379.716 285.071 379.057 285.279C375.801 286.306 372.565 285.311 369.375 285.035C366.281 284.767 363.205 286.752 360.052 284.841C357.098 283.051 357.83 277.934 356.945 275.182C356.581 274.053 355.92 273.889 354.938 273.418L354.188 273.855L353.65 279.591C353.625 281.205 354.121 281.035 355.169 282.125C355.679 282.655 355.508 282.922 355.49 283.618C354.276 285.206 353.444 285.133 351.55 285.642C349.108 285.702 346.603 285.832 344.176 285.507C342.449 285.276 341.628 285.012 340.592 283.618C340.682 281.897 341.884 281.363 343.124 280.225C344.424 276.227 344.74 272.441 345.081 268.305C345.204 266.813 345.549 265.024 345.257 263.558C345.058 262.564 343.921 262.044 343.124 261.498C343.148 259.847 343.37 259.757 344.438 258.604C347.43 257.325 353.006 258.02 356.316 258.037C359.44 258.053 364.252 257.818 366.546 260.35C367.692 261.615 368.176 263.304 368.062 264.995C367.873 267.821 366.148 269.13 364.126 270.841C366.198 273.089 367.065 274.764 367.351 277.814C367.434 278.7 367.367 279.808 367.689 280.639C367.979 281.388 368.367 281.455 369.023 281.78C369.909 281.651 370.899 281.316 371.547 280.669C372.881 279.34 373.942 277.056 374.91 275.428C376.686 272.44 378.764 269.488 380.127 266.284C381.069 264.072 381.649 261.24 382.853 259.221C383.269 258.522 384.015 258.133 384.706 257.749ZM384.841 268.246C383.406 269.779 382.563 271.66 382.056 273.683L382.5 274.35L384.562 274.426C385.684 274.241 386.078 274.323 386.893 273.495C386.395 271.813 385.983 269.974 385.171 268.42L384.841 268.246ZM355.684 262.248C354.476 263.927 354.669 266.968 354.629 268.996L355.125 269.598C355.703 269.424 355.961 269.372 356.446 268.996C357.521 267.583 357.881 265.979 357.649 264.207C357.586 263.729 357.451 263.27 357.294 262.816C356.614 262.359 356.53 262.213 355.684 262.248Z"/>
	<path fill="white" transform="scale(0.157552 0.159449)" d="M563.938 195.87C567.715 195.511 572.852 195.75 576.339 197.318C577.513 197.846 578.504 198.621 578.859 199.919C579.902 203.736 575.502 203.367 574.367 205.884C573.456 207.904 573.535 210.661 573.457 212.866L573.386 227.756C573.398 230.46 573.005 234.679 573.973 237.216C574.641 238.965 578.057 239.059 578.906 241.441C578.949 243.043 578.944 243.536 578.158 245.002C574.544 247.609 570.246 247.515 565.969 247.801C561.843 247.836 557.065 248.119 553.169 246.566C551.582 245.933 550.909 245.051 550.255 243.503C550.363 241.365 553.581 238.26 554.889 236.552C555.795 230.493 555.433 224.013 555.411 217.891C555.401 214.795 555.858 210.131 554.596 207.291C553.575 204.992 550.753 204.245 549.562 201.936C549.491 200.542 549.597 200.09 550.57 198.99C553.114 196.114 560.393 195.955 563.938 195.87Z"/>
	<path transform="scale(0.157552 0.159449)" d="M600.631 257.726C602.173 257.545 604.946 257.76 606.375 258.381C607.262 258.766 607.763 259.342 608.183 260.186C607.721 262.052 606.255 262.583 604.954 263.973C604.621 266.607 602.805 276.597 603.725 278.556C603.887 278.9 604.277 279.299 604.51 279.613C605.338 279.986 606.114 280.325 607.042 280.294C608.356 280.25 609.63 279.772 610.53 278.795C612.678 276.465 613.875 267.4 613.487 264.123C613.289 262.455 611.882 262.304 610.688 261.37C610.548 260.682 610.275 260.186 610.642 259.55C611.106 258.746 611.954 258.189 612.861 258.03C616.037 257.474 620.599 257.538 623.262 259.537L623.625 259.823C623.865 259.486 624.156 259.119 624.484 258.86C625.631 257.958 627.77 258.128 629.152 258.105C632.874 258.044 636.68 257.898 640.396 258.113C642.983 258.263 645.662 258.816 647.396 260.921C648.248 261.955 648.7 264.007 648.553 265.343C648.281 267.818 646.134 269.444 644.34 270.89C645.055 271.645 646.28 272.66 646.825 273.512C648.095 275.498 647.002 278.712 648.02 280.805C648.56 281.916 649.867 281.312 650.363 283.055C649.75 284.172 649.45 284.574 648.27 285.128C646.12 286.137 643.176 285.895 641.02 285.053C639.269 284.369 638.915 282.83 638.222 281.206C637.748 278.839 637.607 276.37 636.678 274.123C635.756 273.687 635.746 273.592 634.708 273.87C634.319 275.102 633.308 279.2 633.604 280.372C633.755 280.966 635.537 281.829 635.829 282.47C635.927 282.685 635.859 283.451 635.867 283.725C635.482 284.203 635.078 284.594 634.52 284.87C632.032 286.102 625.513 286.177 622.907 285.224C621.695 284.781 621.385 284.338 620.894 283.243C621.316 281.739 622.311 281.219 623.474 280.206C625.021 275.66 626.63 267.643 625.425 262.998C624.531 262.213 623.816 261.695 622.688 261.299L621.277 262.103C620.922 262.338 620.218 262.951 620.039 263.345C619.349 264.864 619.295 267.129 619.091 268.773C618.759 271.433 618.32 274.112 617.723 276.725C617.026 279.776 615.402 282.568 612.655 284.16C608.913 286.328 603.702 286.273 599.626 285.085C590.887 282.538 594.02 273.91 594.817 267.354C594.988 265.95 595.366 264.539 594.664 263.238C594.134 262.866 593.584 262.503 593.181 261.987C592.578 261.214 592.666 261.106 592.8 260.184C595.195 258.001 597.522 258.034 600.631 257.726Z"/>
	<path fill="white" transform="scale(0.157552 0.159449)" d="M340.03 195.826C343.16 195.388 346.206 195.538 349.282 196.299C351.861 196.937 355.637 199.548 358.172 198.977C359.024 198.785 359.745 198.619 360.627 198.696C362.351 198.846 363.464 199.953 364.514 201.224C366.951 204.174 367.507 209.24 367.099 212.948C366.923 214.554 365.594 216.826 364.281 217.766C362.984 218.694 360.42 219.149 358.84 218.799C356.173 218.209 354.656 214.962 353.256 212.849C351.367 209.999 349.097 207.182 345.545 206.513L345.06 206.43C342.994 206.045 340.31 205.978 338.45 207.097C336.776 208.105 335.383 210.511 334.928 212.405C333.7 217.507 335.29 223.578 338.015 227.966C339.944 231.074 343.157 233.503 346.762 234.296C351.595 235.359 355.074 234.324 359.096 231.721C359.925 231.044 361.422 229.831 362.449 229.605C363.146 229.451 363.628 229.756 364.19 230.126C365.198 230.79 365.522 231.957 365.749 233.08C366.193 235.282 364.991 238.437 363.761 240.298C361.507 243.712 359.114 243.926 355.473 245.255C353.186 246.09 350.862 247.048 348.465 247.497C340.883 248.919 332.917 247.342 326.615 242.892C320.694 238.712 316.948 232.529 315.774 225.375C314.657 218.567 316.603 212.07 320.659 206.57C325.267 200.321 332.529 196.938 340.03 195.826Z"/>
	<path fill="white" transform="scale(0.157552 0.159449)" d="M454.622 195.441C456.019 195.331 457.454 195.405 458.825 195.706C461.457 196.285 464.593 198.758 466.229 200.856C469.26 204.742 471.39 209.625 473.603 214.025L481.433 229.942L483.877 235.249C484.281 236.204 484.813 237.856 485.498 238.606C486.869 240.104 489.104 239.875 490.402 241.85C490.588 242.809 490.489 243.541 490.061 244.431C489.455 245.689 488.119 246.385 486.852 246.827C483.645 247.947 479.766 247.815 476.401 247.821C471.708 247.83 465.663 248.319 461.411 246.153C460.845 245.516 460.317 244.928 460.156 244.064C459.54 240.756 463.075 240.644 464.438 238.5C464.257 237.308 464.067 237.074 463.312 236.116C460.538 235.043 449.899 234.644 447.138 235.626C446.255 235.94 445.944 236.916 445.519 237.692C445.534 238.025 445.466 238.922 445.588 239.185C445.633 239.284 446.626 239.777 446.812 239.887C448.459 240.867 449.483 241.214 450.359 242.94C450.232 243.558 450.103 244.241 449.807 244.803C449.271 245.816 448.126 246.595 447.061 246.951C443.085 248.279 437.848 247.988 433.72 247.507C432.401 247.353 430.682 247.174 429.562 246.433C428.795 245.925 428.383 245.337 428.186 244.457C427.978 243.529 428.204 242.652 428.767 241.921C429.728 240.674 431.209 240.347 432.476 239.498C435.222 237.656 437.01 233.037 438.394 230.096C441.373 223.767 444.918 216.976 446.786 210.23C447.791 206.6 447.137 202.004 449.127 198.784C450.529 196.515 452.157 196.05 454.622 195.441ZM454.268 215.759C451.963 218.654 450.928 222.65 449.747 226.117L457.219 226.084L459.938 226.002L460.553 225.32C459.888 222.101 457.236 218.109 454.949 215.838L454.268 215.759Z"/>
	<path fill="white" transform="scale(0.157552 0.159449)" d="M92.4298 241.592C92.2359 242.261 92.1655 242.907 92.1881 243.606C92.3993 250.14 97.481 259.021 102.141 263.366C109.248 269.993 117.296 272.538 126.94 272.215C141.135 271.739 154.089 263.267 164.919 254.856C170.252 250.714 175.355 246.048 179.827 240.953L187.306 231.837C189.014 229.59 190.637 227.069 192.582 225.03C194.637 222.878 199.179 223.57 202.03 223.531L203.825 231.7C202.205 234.046 200.241 235.819 198.384 237.936C185.875 252.195 169.924 265.451 152.233 272.691C137.945 278.538 118.523 281.063 105.474 270.869C103.969 269.693 102.492 268.43 101.175 267.047C100.233 266.059 98.3934 263.232 97.2776 262.765L98.3671 264.963C102.717 272.182 111.38 277.87 119.493 279.869C141.35 285.254 165.304 271.837 181.441 258.113L189.223 251.076C191.036 249.286 193.274 246.436 195.468 245.171C197.035 244.268 199.159 244.821 200.812 245.266C201.926 246.545 201.717 248.767 201.776 250.391C199.41 253.39 196.403 255.394 193.537 257.831C180.03 269.317 162.676 280.789 144.937 283.957C131.574 286.344 118.335 285.288 106.875 277.449L106.154 276.952C99.3923 271.941 93.0785 262.006 91.9972 253.684L91.4411 250.762C90.9547 248.34 90.1816 242.709 91.5 240.74L92.3148 241.175L92.4298 241.592Z"/>
	<path fill="white" transform="scale(0.157552 0.159449)" d="M648.715 195.832C650.831 195.539 652.813 195.492 654.938 195.762C656.938 196.017 662.169 198.035 663.836 197.472C664.626 197.205 666.772 196.411 667.486 196.688C670.104 197.707 672.67 200.649 673.707 203.214C674.585 205.386 675.359 208.501 674.245 210.698C673.653 211.864 672.602 212.904 671.324 213.258C667.321 214.366 662.851 207.686 659.464 205.995C657.67 205.1 654.768 204.668 652.875 205.515C651.832 205.982 651.295 206.789 651.034 207.886C650.668 209.427 651.467 210.658 652.668 211.548C654.057 212.578 656.142 213.018 657.788 213.519C660.857 214.453 664.185 215.414 667.092 216.794C669.427 217.902 673.114 220.93 674.259 223.227C676.11 226.943 676.235 231.792 674.756 235.619C673.349 239.26 670.463 243.235 666.783 244.817C662.444 246.683 659.033 247.545 654.324 248.023C651.841 248.152 649.319 247.979 646.852 247.691C642.988 247.24 635.922 246.531 633.417 243.292C630.998 240.164 629.399 233.953 630.033 230.006C630.209 228.91 630.798 228.104 631.688 227.473C636.335 226.45 638.068 232.805 640.828 235.459C641.857 236.449 643.824 237.573 645.191 238.008C647.628 238.784 651.708 239.295 653.995 237.844C654.928 237.252 655.639 236.546 655.831 235.442C655.545 234.644 655.2 233.381 654.515 232.847C652.981 231.652 650.755 231.151 648.938 230.546C645.589 229.432 641.876 228.104 639.024 226.006C635.13 223.141 632.086 219.192 631.368 214.31C630.866 210.902 631.942 206.29 634.089 203.566C637.876 198.762 642.774 196.592 648.715 195.832Z"/>
	<path fill="white" transform="scale(0.157552 0.159449)" d="M600.361 195.823C604.172 195.311 607.795 195.782 611.487 196.795C612.206 196.992 613.809 197.688 614.472 197.662C615.608 197.618 616.897 196.873 618.124 196.793C619.659 196.693 620.832 197.749 621.938 198.655L622.295 198.944C624.491 200.821 626.203 204.822 626.299 207.653C626.364 209.565 625.914 211.011 624.522 212.35C620.611 216.11 615.455 209.042 612.458 206.892C610.945 205.807 609.001 205.042 607.125 205.111C605.788 205.16 604.021 205.401 603.15 206.482C602.409 207.401 602.5 208.375 602.628 209.469C603 212.659 611.275 213.938 613.877 214.914C616.879 216.039 619.943 217.359 622.448 219.398C625.149 221.595 626.814 224.667 627.137 228.1C627.599 233.02 626.307 237.17 623.11 240.986C618.855 246.066 611.978 247.494 605.718 248.071C601.501 248.223 597.196 247.717 593.053 246.936C589.806 246.324 585.993 245.15 584.168 242.207C582.52 239.549 580.569 232.889 581.452 229.744C581.797 228.518 582.596 227.836 583.688 227.28C588.557 227.339 590.399 234.571 594.418 236.965C596.852 238.416 601.345 239.269 604.098 238.474C605.845 237.97 606.701 236.78 607.455 235.255C606.48 231.418 599.857 230.441 596.686 229.176C594.403 228.265 592.321 227.178 590.299 225.779C586.484 223.14 583.512 218.957 582.819 214.288C582.282 210.666 583.517 206.531 585.669 203.609C589.291 198.692 594.514 196.655 600.361 195.823Z"/>
	<path fill="white" transform="scale(0.157552 0.159449)" d="M498.251 196.215C501.76 195.836 505.528 196.54 509.062 196.547C515.635 196.561 522.243 195.456 528.742 196.891C532.727 197.772 536.459 199.745 538.634 203.307C540.129 205.752 540.475 209.65 539.792 212.399C538.609 217.158 535.797 218.923 531.877 221.326L535.425 223.118C540.503 225.705 541.748 229.162 542.787 234.456C543.021 235.644 543.041 237.136 543.52 238.254C543.812 238.934 544.257 239.317 544.933 239.587C546.049 240.034 547.388 240.5 548.173 241.451C548.62 241.993 548.673 242.623 548.52 243.315C548.162 244.93 546.931 245.98 545.58 246.785C541.74 249.073 535.441 248.895 531.259 247.809C528.005 246.963 526.287 245.002 524.62 242.268C522.424 237.614 522.003 232.373 519.718 227.756C518.657 226.826 517.071 225.812 515.593 225.87C514.801 225.901 514.676 226.273 514.236 226.823C513.766 229.954 513.773 233.117 514.2 236.256C514.621 239.354 515.027 238.771 517.312 240.634C518.127 241.298 518.599 242.055 518.591 243.128C518.585 243.903 518.289 245.055 517.702 245.603C515.737 247.441 511.633 247.655 509.052 247.758C504.846 247.924 495.561 248.441 492.379 245.177C488.884 241.593 495.101 239.107 496.057 235.9C496.746 233.593 496.5 231.037 496.502 228.648L496.495 216.24C496.506 213.334 497.24 207.072 495.138 204.87C494.033 203.713 492.457 203.073 491.28 201.888C491.125 200.601 491.042 199.604 491.897 198.514C493.483 196.491 495.907 196.503 498.251 196.215ZM514.609 204.512C513.014 206.944 513.705 214.314 513.671 217.259L514.125 218.127C516.115 218.447 517.633 217.955 519.286 216.884C520.716 215.485 521.293 213.619 521.297 211.648C521.303 209.353 520.841 207.44 519.712 205.449C518.596 204.588 517.105 204.171 515.692 204.309L514.609 204.512Z"/>
	<path fill="white" transform="scale(0.157552 0.159449)" d="M383.822 195.872C385.449 195.671 387.206 195.841 388.841 195.959C391.496 196.151 394.626 196.782 396.442 198.889C396.764 199.759 396.925 200.387 396.814 201.325C396.583 203.283 394.017 204.881 392.541 206.06C391.679 208.475 391.394 213.371 392.425 215.759C394.673 216.865 401.862 216.649 404.329 215.775C404.972 215.547 404.985 215.22 405.274 214.635C404.832 211.382 405.053 208.692 404.015 205.477C402.039 204.393 400.919 203.697 400.156 201.513C400.289 200.275 400.622 199.272 401.551 198.393C404.279 195.812 410.18 195.835 413.693 195.777C417.523 195.715 423.793 195.696 426.629 198.732C427.288 199.438 427.571 200.212 427.454 201.167C427.122 203.892 425.144 204.233 423.279 205.75C421.566 209.481 422.437 216.799 422.422 220.979C422.402 226.652 421.856 232.61 422.624 238.235L425.231 239.754C426.207 240.376 426.691 240.805 426.877 242.003C427.047 243.099 426.685 244.35 425.926 245.163C422.965 248.336 414.21 247.808 410.242 247.801C407.522 247.574 403.716 247.41 401.474 245.688C400.569 244.992 400.154 244.287 400.062 243.138C399.863 240.675 401.772 239.459 403.245 237.784C405.603 235.101 405.109 229.034 404.93 225.585C401.498 225.183 395.547 224.804 392.339 226.16C391.522 227.959 391.809 230.95 391.908 232.935C391.974 234.269 392.129 236.499 392.759 237.69C393.209 238.539 395.235 239.959 396.032 240.691C396.449 241.968 396.482 242.593 396.04 243.877C395.605 245.146 393.685 246.085 392.49 246.551C387.411 248.529 376.792 248.519 371.798 246.254C370.464 245.649 369.304 244.942 368.812 243.489C367.767 240.406 372.642 239.145 373.719 236.799C374.652 234.769 374.452 231.268 374.478 229.038L374.441 213.975C374.411 211.915 374.722 208.639 374.03 206.726C373.37 204.899 370.03 204.677 369.236 202.461C369.247 201.257 369.581 200.327 370.437 199.449C373.537 196.271 379.635 195.964 383.822 195.872Z"/>
	<path transform="scale(0.157552 0.159449)" d="M92.1026 260.939C92.3752 261.435 92.6779 261.944 92.8147 262.496C93.6861 266.012 95.6315 269.471 97.7504 272.41C103.976 281.042 114.037 286.553 124.5 288.031C147.188 291.236 170.355 280.134 187.905 266.554L187.916 297.713C187.921 302.953 188.522 308.874 187.538 313.985C187.259 315.43 186.714 316.694 186.133 318.035C185.4 319.116 184.581 320.28 183.639 321.189C178.863 325.804 172.399 325.229 166.272 325.19C166.013 323.3 165.911 321.067 164.819 319.456C163.968 318.2 162.474 317.428 160.985 317.221C159.655 317.036 157.941 317.568 156.923 318.438C155.066 320.025 154.984 322.76 154.806 325.015L125.039 325.276C124.833 323.508 124.757 321.105 123.747 319.609C122.882 318.329 121.457 317.432 119.913 317.237C118.706 317.084 117.027 317.381 116.066 318.174C113.784 320.056 113.707 322.377 113.46 325.1L109.372 325.31C104.295 325.197 99.1663 324.672 95.5106 320.734C93.8848 318.982 92.5213 316.42 92.0977 314.055C91.2027 309.058 91.7656 303.017 91.7455 297.93L92.1026 260.939Z"/>
	<path transform="scale(0.157552 0.159449)" d="M92.3148 241.175C90.9292 236.555 91.7889 231.8 91.7785 227.044C91.768 222.216 91.34 217.002 91.937 212.216C92.1458 210.542 92.6383 208.996 93.4415 207.511C95.1738 204.309 97.8347 202.038 101.369 201.057C105.446 199.926 110.605 199.982 114.776 200.629L118.121 203.497L118.045 186.237C118.055 184.809 118.515 180.974 117.934 179.768C117.856 179.607 117.412 179.245 117.278 179.117C116.222 178.099 115.233 177.542 115.14 175.892C115.053 174.346 115.195 173.057 116.368 171.906C117.136 171.152 118.121 170.819 119.164 170.687C121.412 170.402 123.916 170.595 126.188 170.591L139.776 170.601C146.245 170.617 153.157 170.072 159.568 170.656C161.13 170.798 162.632 171.121 163.683 172.391C164.341 173.187 164.823 174.658 164.664 175.692C164.331 177.864 162.3 178.474 161.619 180.073C161.419 180.542 161.323 201.15 161.379 203.859C162.269 202.95 163.784 200.903 164.821 200.34C165.095 200.192 166.565 200.316 167.01 200.312C172.912 200.246 179.051 199.74 183.614 204.21C185.615 206.17 186.999 208.264 187.52 211.073C188.221 214.855 187.788 218.688 187.926 222.505C188.056 226.122 174.167 241.129 171.234 244.152C159.549 256.198 143.288 268.204 125.796 268.498C116.925 268.647 108.668 265.908 102.22 259.681C96.9551 254.596 94.5053 248.439 92.4298 241.592L92.3148 241.175ZM121.468 179.768C120.913 182.025 121.157 184.807 121.135 187.143L121.058 203.576L158.587 203.416L158.537 179.659L121.468 179.768Z"/>
</svg>
