<?xml version="1.0" standalone="no"?>
<!DOCTYPE svg PUBLIC "-//W3C//DTD SVG 20010904//EN"
 "http://www.w3.org/TR/2001/REC-SVG-20010904/DTD/svg10.dtd" >
<svg version="1.0" xmlns="http://www.w3.org/2000/svg" 
 width="400.000000pt" height="250.000000pt" viewBox="0 0 400.000000 250.000000"
 preserveAspectRatio="xMidYMid meet">

<g transform="translate(0.000000,250.000000) scale(0.100000,-0.100000)"
fill="#616161" stroke="none">
<path d="M2405 1554 c-27 -2 -126 -8 -220 -14 -428 -27 -1033 -115 -1905 -274
-41 -8 -121 -22 -177 -32 l-103 -17 0 -609 0 -608 2000 0 2000 0 0 674 0 674
-72 22 c-40 12 -93 28 -118 36 -154 47 -454 102 -705 129 -142 15 -592 27
-700 19z"/>
</g>
</svg>
