<?xml version="1.0" encoding="utf-8" ?>
<svg xmlns="http://www.w3.org/2000/svg" xmlns:xlink="http://www.w3.org/1999/xlink" width="182" height="187">
	<path fill="#020203" d="M0 85.3522L-0 -0L84.8521 0L97.1372 0L182 0L182 84.8294L182 97.3984L182 187L-0 187L0 96.157L0 85.3522ZM69.7752 13.6262C69.0552 13.85 68.3503 14.0881 67.5949 14.156C63.0691 16.144 58.4529 17.5745 54.0339 19.8797C37.4638 28.5235 23.536 43.2896 16.6882 60.7655C15.286 64.3439 13.242 68.8015 12.8952 72.67C10.6603 80.4582 10.5098 88.6013 11.0027 96.625C11.2307 100.337 11.5921 104.453 12.5548 108.059L14.3708 115.232C14.7583 116.497 15.3553 117.725 15.7982 118.977C15.8715 119.184 16.2085 120.012 16.1417 120.13C16.8587 121.274 17.3154 122.643 17.8728 123.877L21.1045 130.38C27.5481 141.871 37.1511 151.423 48.1237 158.601C65.1993 169.771 87.3738 173.743 107.273 169.478C127.753 165.09 146.533 152.571 157.954 134.906C169.49 117.06 173.951 95.3312 169.446 74.4477C165.003 53.8502 153.108 35.4741 135.213 24.0542C130.832 21.2588 126.331 18.7037 121.52 16.7164C109.632 11.8062 95.9286 9.87471 83.1366 11.1669C78.5903 11.6261 74.2202 12.6337 69.7752 13.6262ZM0 96.157L-0 187L182 187L182 97.3984C181.46 98.446 181.414 99.9316 181.252 101.102L180.199 108.153C178.64 116.057 176.024 124.704 172.184 131.81C167.469 140.536 161.743 148.69 154.715 155.716C144.594 165.836 130.972 173.938 117.25 177.973C93.9275 184.83 68.4585 182.166 47.1156 170.537C26.929 159.538 10.1577 139.433 3.97024 117.129C2.99504 113.614 1.95898 109.878 1.41862 106.267C0.928987 102.994 0.918365 99.2875 0 96.157ZM97.1372 0L97.2226 0.0347207C99.3774 0.889932 102.274 0.798269 104.606 1.20275C108.975 1.96032 113.327 2.93647 117.571 4.22302C130.718 8.20876 143.242 15.3305 153.225 24.806C155.287 26.7631 157.063 28.8945 158.943 31.0143C164.658 37.4582 169.621 44.6703 173.065 52.5974C176.028 59.416 178.597 66.3538 180.049 73.6658L181.13 80.3857C181.31 81.7178 181.374 83.1822 181.85 84.4451L182 84.8294L182 0L97.1372 0ZM0 85.3522C0.633564 83.7802 0.635486 81.6924 0.855688 79.9983L1.9309 73.5403C2.98693 67.5812 4.82678 61.6964 7.10445 56.0941C16.9813 31.8002 38.336 11.9799 63.5236 4.40052C68.0497 3.03855 72.7064 1.97342 77.3597 1.15038C79.6725 0.741312 82.6646 0.934306 84.7696 0.036163L84.8521 0L-0 -0L0 85.3522ZM16.1417 120.13C16.2085 120.012 15.8715 119.184 15.7982 118.977C15.3553 117.725 14.7583 116.497 14.3708 115.232L12.5548 108.059C11.5921 104.453 11.2307 100.337 11.0027 96.625C10.5098 88.6013 10.6603 80.4582 12.8952 72.67C12.6323 72.5806 12.3583 72.5066 12.1216 72.3585L11.8597 73.125L11.5638 72.875C11.3927 73.953 11.3132 75.2549 10.9317 76.2685C10.7437 76.7678 10.8263 77.3564 10.8571 77.8809L10.6105 77.375C10.4531 78.8557 10.3694 80.417 10.0816 81.875C9.98774 82.3502 9.69927 82.7629 9.65042 83.25C9.44058 85.3425 9.59485 87.5888 9.57823 89.6968C9.57245 90.4289 9.39098 91.8494 9.71187 92.4619L9.88066 92.25C9.88753 92.8995 10.0761 94.3777 9.78551 94.9132C9.59274 95.2684 9.73523 95.8862 9.75427 96.2924C9.78666 96.9834 9.66723 97.6867 9.76906 98.375C9.88284 99.144 10.2237 99.871 10.3314 100.643C10.5003 101.855 10.5086 103.114 10.625 104.337L10.779 103.803C11.033 104.407 10.9047 105.104 10.9919 105.75C11.151 106.928 11.4958 108.045 11.5673 109.24L11.8845 109.125C12.0665 110.453 12.2228 111.959 12.5001 113.25C12.722 114.283 13.3896 115.192 13.4423 116.267L13.5015 116.327C14.0614 116.9 14.4746 119.123 14.5958 119.193C15.1744 119.524 15.4964 121.562 15.625 121.606C16.0156 121.741 15.8494 121.456 16.1598 121.875C16.1476 121.565 16.1315 121.273 16.0754 120.968C16.0205 120.669 16.0743 120.422 16.1417 120.13ZM67.5949 14.156C68.3503 14.0881 69.0552 13.85 69.7752 13.6262L69.5831 13.2796C70.0798 12.7946 70.1831 12.7456 70.875 12.688L70.8725 12.375C68.9508 12.2944 67.3444 13.2564 65.57 13.6958L65.3506 13.9468L65.625 14.273L66.4007 14.125L66.625 13.766C66.9801 13.8578 67.3 13.9229 67.5949 14.156Z"/>
	<path fill="#020203" fill-opacity="0.96862745" d="M67.5949 14.156C67.3 13.9229 66.9801 13.8578 66.625 13.766L66.4007 14.125L65.625 14.273L65.3506 13.9468L65.57 13.6958C67.3444 13.2564 68.9508 12.2944 70.8725 12.375L70.875 12.688C70.1831 12.7456 70.0798 12.7946 69.5831 13.2796L69.7752 13.6262C69.0552 13.85 68.3503 14.0881 67.5949 14.156Z"/>
	<path fill="#020203" fill-opacity="0.86666667" d="M16.1417 120.13C16.0743 120.422 16.0205 120.669 16.0754 120.968C16.1315 121.273 16.1476 121.565 16.1598 121.875C15.8494 121.456 16.0156 121.741 15.625 121.606C15.4964 121.562 15.1744 119.524 14.5958 119.193C14.4746 119.123 14.0614 116.9 13.5015 116.327L13.4423 116.267C13.3896 115.192 12.722 114.283 12.5001 113.25C12.2228 111.959 12.0665 110.453 11.8845 109.125L11.5673 109.24C11.4958 108.045 11.151 106.928 10.9919 105.75C10.9047 105.104 11.033 104.407 10.779 103.803L10.625 104.337C10.5086 103.114 10.5003 101.855 10.3314 100.643C10.2237 99.871 9.88284 99.144 9.76906 98.375C9.66723 97.6867 9.78666 96.9834 9.75427 96.2924C9.73523 95.8862 9.59274 95.2684 9.78551 94.9132C10.0761 94.3777 9.88753 92.8995 9.88066 92.25L9.71187 92.4619C9.39098 91.8494 9.57245 90.4289 9.57823 89.6968C9.59485 87.5888 9.44058 85.3425 9.65042 83.25C9.69927 82.7629 9.98774 82.3502 10.0816 81.875C10.3694 80.417 10.4531 78.8557 10.6105 77.375L10.8571 77.8809C10.8263 77.3564 10.7437 76.7678 10.9317 76.2685C11.3132 75.2549 11.3927 73.953 11.5638 72.875L11.8597 73.125L12.1216 72.3585C12.3583 72.5066 12.6323 72.5806 12.8952 72.67C10.6603 80.4582 10.5098 88.6013 11.0027 96.625C11.2307 100.337 11.5921 104.453 12.5548 108.059L14.3708 115.232C14.7583 116.497 15.3553 117.725 15.7982 118.977C15.8715 119.184 16.2085 120.012 16.1417 120.13Z"/>
	<path fill="#9D305A" d="M66.8808 142.905C67.3827 143.067 68.516 143.582 68.9933 143.41C69.0832 143.805 69.1576 144.206 69.2924 144.589C69.7249 145.817 69.6389 147.981 69.0703 149.164C68.6168 150.107 67.6209 151.278 66.6472 151.712C66.6583 150.76 66.8288 150.539 67.2459 149.725C68.3811 147.509 67.5923 145.107 66.8808 142.905Z"/>
	<path fill="#9D305A" d="M127.452 142.455C127.773 141.688 128.415 140.942 128.832 140.206C129.739 142.396 130.419 145.596 129.509 147.888C129.098 148.923 128.168 149.687 127.241 150.236C127.316 149.259 127.517 148.801 127.868 147.912C128.595 146.072 128.182 144.203 127.452 142.455Z"/>
	<path fill="#273638" d="M70.7879 144.042C72.2907 144.248 73.8259 144.416 75.3084 144.736C76.7482 145.047 78.0845 145.536 79.5684 145.625C79.054 146.713 78.0424 147.964 76.8669 148.368C75.9158 148.694 74.5421 148.576 73.6475 148.142C71.6793 147.188 71.4519 145.92 70.7879 144.042Z"/>
	<path fill="#9D305A" d="M116.386 149.156C117.267 150.197 117.081 152.077 116.962 153.375C116.82 154.91 115.954 156.307 114.775 157.278C113.972 157.938 113.105 158.347 112.098 158.603C112.214 157.647 112.678 156.928 113.064 156.067C113.919 154.157 113.833 152.1 113.469 150.094L116.386 149.156Z"/>
	<path fill="#273638" d="M127.452 142.455C128.182 144.203 128.595 146.072 127.868 147.912C127.517 148.801 127.316 149.259 127.241 150.236C127.139 150.301 127.147 150.301 127.013 150.355C126.256 150.659 125.08 150.748 124.323 150.402C122.842 149.726 122.054 148.217 121.545 146.768C123.652 145.607 125.689 144.086 127.452 142.455Z"/>
	<path fill="#0095B2" d="M75.1997 37.019L75.2355 41.9248L68.5603 41.2952C67.081 41.1834 65.151 41.3838 63.8645 40.5848C65.3976 39.5133 67.2096 38.1703 69.03 37.6587C70.9333 37.1237 73.2195 37.2637 75.1997 37.019Z"/>
	<path fill="#273638" d="M105.143 149.737C107.878 149.92 110.743 150.559 113.469 150.094C113.833 152.1 113.919 154.157 113.064 156.067C112.678 156.928 112.214 157.647 112.098 158.603C110.998 158.575 109.898 158.601 108.885 158.114L108.75 158.048C107.248 157.337 106.289 156.056 105.67 154.551C105.074 153.104 105.189 151.29 105.143 149.737Z"/>
	<path fill="#273638" d="M61.6795 141.493C63.4081 141.675 65.2398 142.341 66.8808 142.905C67.5923 145.107 68.3811 147.509 67.2459 149.725C66.8288 150.539 66.6583 150.76 66.6472 151.712C65.534 152.295 64.4042 152.445 63.1633 152.202C61.6873 151.912 60.563 151.001 59.7392 149.783C58.8559 148.477 58.5309 146.808 58.8449 145.262C59.1873 143.577 60.2834 142.398 61.6795 141.493Z"/>
	<path fill="#0095B2" d="M75.1997 37.019C75.0393 35.6579 73.9951 35.4846 73.4983 34.25L73.4356 34.0979C72.616 32.0648 72.8204 29.114 73.7017 27.105C74.2087 25.9493 75.1945 24.9564 76.3857 24.5188C80.6319 22.959 92.9579 24.5735 97.0554 26.5129C98.4898 27.1918 99.4604 28.6169 99.955 30.0744C100.66 32.1519 100.947 35.8359 99.9493 37.8225L99.113 39.1801C104.427 39.7183 110.009 41.1625 115.134 42.6233C119.639 43.9073 125.757 45.4255 128.855 49.1884C129.342 49.7795 129.632 50.6394 129.693 51.3953C129.917 54.1716 129.706 57.113 129.695 59.9107L129.687 76.0365L129.58 124.915C129.535 127.246 129.511 129.59 129.299 131.914C129.053 134.6 128.593 137.52 128.832 140.206C128.415 140.942 127.773 141.688 127.452 142.455C125.689 144.086 123.652 145.607 121.545 146.768C119.946 147.507 117.784 148.167 116.386 149.156L113.469 150.094C110.743 150.559 107.878 149.92 105.143 149.737C104.65 149.294 100.902 149.16 100.086 149.052L79.5684 145.625C78.0845 145.536 76.7482 145.047 75.3084 144.736C73.8259 144.416 72.2907 144.248 70.7879 144.042C70.2319 143.484 69.7426 143.528 68.9933 143.41C68.516 143.582 67.3827 143.067 66.8808 142.905C65.2398 142.341 63.4081 141.675 61.6795 141.493C60.5789 140.945 59.3577 140.503 58.4675 139.625C56.0285 137.218 55.8067 130.817 55.4994 127.5L54.4931 111.071L54.9918 62.6677L55.4894 54.2489C55.5977 53.034 55.6114 51.5888 55.9536 50.4217C56.8769 47.2734 59.0943 45.084 61.2928 42.7821C62.0462 41.9753 63.0075 41.2846 63.8645 40.5848C65.151 41.3838 67.081 41.1834 68.5603 41.2952L75.2355 41.9248L75.1997 37.019ZM75.1997 37.019L75.2355 41.9248L75.1715 44.5063L75.2512 51.9483C74.1494 52.0511 73.4443 52.0123 72.6724 52.9557C71.5612 54.3136 70.9306 56.1248 70.97 57.875C71.5647 58.8288 72.4413 59.1098 73.5233 59.3632C79.7445 60.82 86.1907 61.6692 92.5 62.6638L98.1889 63.5189C99.3219 63.674 100.486 63.9636 101.602 63.6124C103.046 62.6144 103.633 60.71 103.936 59.0547C104.049 58.4355 104.176 57.1098 103.812 56.5769C103.158 55.6187 101.454 55.4813 100.394 55.3037L98.4405 55.0403L98.3501 51.0038L97.75 50.8725L97.375 51.1225L96.8775 50.625C96.8565 49.6789 96.7604 48.9275 97.375 48.1275L98 48.1275L98.159 47.875C98.1921 46.7228 97.7675 47.0161 97.1275 46.125C97.1193 44.3405 96.8063 41.6923 97.2623 40.0122L98.2591 39.6881C98.4951 39.6792 98.9033 39.3202 99.113 39.1801L99.9493 37.8225C100.947 35.8359 100.66 32.1519 99.955 30.0744C99.4604 28.6169 98.4898 27.1918 97.0554 26.5129C92.9579 24.5735 80.6319 22.959 76.3857 24.5188C75.1945 24.9564 74.2087 25.9493 73.7017 27.105C72.8204 29.114 72.616 32.0648 73.4356 34.0979L73.4983 34.25C73.9951 35.4846 75.0393 35.6579 75.1997 37.019Z"/>
	<path fill="#D6E9CE" d="M107.055 114.657L107.172 104.58C107.187 103.387 106.942 101.308 107.586 100.344L108.419 100.375C108.862 101.004 108.682 118.831 108.408 120.503C108.382 120.665 108.321 120.828 108.261 120.98L107.621 121.327C106.576 120.264 107.045 116.211 107.055 114.657Z"/>
	<path fill="#EBF2CB" d="M107.055 114.657C107.248 113.972 107.354 113.145 107.627 112.5C108.869 114.803 107.727 118.481 108.261 120.98L107.621 121.327C106.576 120.264 107.045 116.211 107.055 114.657Z"/>
	<path fill="#273638" d="M63.8645 40.5848C65.151 41.3838 67.081 41.1834 68.5603 41.2952L75.2355 41.9248L75.1715 44.5063C74.1485 44.5369 72.9271 44.1482 71.8837 44.0391C68.3461 43.6692 64.7774 43.5667 61.2928 42.7821C62.0462 41.9753 63.0075 41.2846 63.8645 40.5848Z"/>
	<path fill="#273638" d="M114.03 109.905C114.455 113.214 114.331 116.708 114.387 120.048C114.53 128.579 114.472 136.968 113.68 145.466L113.25 145.802L112.764 145.625C112.532 144.417 112.826 142.925 112.919 141.7L113.269 134.873L113.262 114.476C113.617 115.666 113.556 117.131 113.622 118.375C114.096 117.506 113.994 116.25 113.983 115.289C113.965 113.489 113.906 111.703 114.03 109.905Z"/>
	<path fill="#EBF2CB" d="M108.688 69.9999C107.084 69.3634 103.557 69.0181 102.666 67.75L102.875 67.2967C104.32 66.9933 107.676 68.0941 108.929 68.9119C109.363 69.1953 109.649 69.4879 109.744 70.0192L109.774 70.2813C110.311 72.5208 109.761 75.85 109.674 78.1833C109.601 80.2367 109.779 88.1231 108.875 89.5802L108.27 89.4568C107.744 88.4926 107.967 87.1571 107.981 86.0519L108.38 76.6704L108.688 69.9999Z"/>
	<path fill="#020203" d="M113.223 111.555C112.788 109.626 112.922 107.188 112.854 105.199L113.059 80.4037C113.163 76.7534 112.817 72.2241 113.694 68.7174L114.125 68.4846L114.559 68.75L113.793 104.109L114.03 109.905C113.906 111.703 113.965 113.489 113.983 115.289C113.994 116.25 114.096 117.506 113.622 118.375C113.556 117.131 113.617 115.666 113.262 114.476L113.223 111.555Z"/>
	<path fill="#273638" d="M70.7202 87.375C71.2597 87.1301 71.9243 87.1537 72.5 87.2311C73.4729 87.3618 74.3032 88.1027 74.875 88.8664C75.8716 90.1975 76.238 92.2696 75.9884 93.8867C75.7035 95.7323 74.693 96.7752 73.253 97.8389C73.0761 97.8505 73.1439 97.8408 72.9894 97.8683C72.5503 97.9466 72.0559 98.0498 71.6116 97.971C70.6576 97.8019 69.6897 96.8342 69.172 96.0536C68.2436 94.6534 67.9396 92.428 68.2799 90.7771C68.5988 89.2303 69.4243 88.2297 70.7202 87.375Z"/>
	<path fill="#9D305A" d="M89.6963 101.375C89.9663 101.365 90.1932 101.459 90.449 101.537L97.6225 118.625C96.9871 119.269 95.1882 119.353 94.2375 119.586L88.706 121.182L88.6862 121.235C88.1728 121.461 88.157 121.492 87.625 121.333L81.3169 105.816L89.6963 101.375Z"/>
	<path fill="#273638" d="M98.3501 51.0038L97.75 50.8725L97.375 51.1225L96.8775 50.625C96.8565 49.6789 96.7604 48.9275 97.375 48.1275L98 48.1275L98.159 47.875C98.1921 46.7228 97.7675 47.0161 97.1275 46.125C97.1193 44.3405 96.8063 41.6923 97.2623 40.0122L98.2591 39.6881L98.3774 44.1503C104.456 44.7684 110.357 45.7294 116.022 48.1182C118.177 49.027 120.573 50.2743 122.077 52.1133L123.825 54.3935C125.361 53.6867 127.123 53.0479 128.5 52.0719L129.301 52.1774L129.501 52.625C128.863 53.8229 124.275 54.8689 124.121 55.6415C123.996 56.2643 124.43 57.9298 124.502 58.6597L125.275 68.8805L124.67 114.42C124.629 115.918 124.646 125.331 124.176 125.953C124.081 126.079 123.731 126.271 123.591 126.371C122.821 126.324 122.592 126.385 122.015 125.875C121.817 123.752 122.028 121.563 122.117 119.436L122.485 109.247L122.998 79.3004C122.984 71.9002 122.89 64.3744 121.951 57.0269C120.22 58.3302 118.632 59.7952 117.223 61.4439C115.935 62.9515 114.974 65.3072 113.271 66.3059C114.238 61.9402 118.37 58.3314 121.758 55.6392C120.886 54.6259 119.999 53.4713 118.944 52.6484C113.378 48.3051 105.219 47.6075 98.4725 46.7104C98.4637 47.686 98.7371 50.2231 98.3501 51.0038Z"/>
	<path fill="#020203" d="M75.1997 37.019C75.0393 35.6579 73.9951 35.4846 73.4983 34.25L73.4356 34.0979C72.616 32.0648 72.8204 29.114 73.7017 27.105C74.2087 25.9493 75.1945 24.9564 76.3857 24.5188C80.6319 22.959 92.9579 24.5735 97.0554 26.5129C98.4898 27.1918 99.4604 28.6169 99.955 30.0744C100.66 32.1519 100.947 35.8359 99.9493 37.8225L99.113 39.1801C98.9033 39.3202 98.4951 39.6792 98.2591 39.6881L97.2623 40.0122C96.8063 41.6923 97.1193 44.3405 97.1275 46.125C97.7675 47.0161 98.1921 46.7228 98.159 47.875L98 48.1275L97.375 48.1275C96.7604 48.9275 96.8565 49.6789 96.8775 50.625L97.375 51.1225L97.75 50.8725L98.3501 51.0038L98.4405 55.0403L100.394 55.3037C101.454 55.4813 103.158 55.6187 103.812 56.5769C104.176 57.1098 104.049 58.4355 103.936 59.0547C103.633 60.71 103.046 62.6144 101.602 63.6124C100.486 63.9636 99.3219 63.674 98.1889 63.5189L92.5 62.6638C86.1907 61.6692 79.7445 60.82 73.5233 59.3632C72.4413 59.1098 71.5647 58.8288 70.97 57.875C70.9306 56.1248 71.5612 54.3136 72.6724 52.9557C73.4443 52.0123 74.1494 52.0511 75.2512 51.9483L75.1715 44.5063L75.2355 41.9248L75.1997 37.019ZM78.9164 37.1557L94.2535 38.5781C94.2034 37.8828 93.799 37.2683 93.6979 36.5578C93.4944 35.1289 93.5582 33.5792 93.5236 32.1333C89.7247 31.5809 86.0802 30.8366 82.2252 30.6702C81.431 30.6359 80.4006 30.385 79.7082 30.75C79.6836 31.5497 79.8736 32.3993 79.7646 33.1871C79.579 34.5296 79.0837 35.788 78.9164 37.1557Z"/>
	<path fill="#0095B2" d="M79.2546 42.1533C78.9189 41.3083 78.8588 41.1556 78.1313 40.625L78.0294 37.125L78.5 36.8198L78.9164 37.1557L94.2535 38.5781C94.9083 39.5141 94.5994 42.4053 94.5964 43.6252C94.5261 44.4528 94.3863 45.3335 94.4383 46.1614L84.8266 45.3731C82.903 45.2079 80.8648 45.1638 78.9836 44.7226C78.4234 44.5755 78.1705 44.3703 77.8775 43.875C77.8481 43.378 77.8271 43.0777 78.125 42.6448L78.8673 42.758L79.2546 42.1533Z"/>
	<path fill="#273638" d="M79.2546 42.1533C79.9608 42.7654 82.4721 42.6565 83.4906 42.7387L94.5964 43.6252C94.5261 44.4528 94.3863 45.3335 94.4383 46.1614L84.8266 45.3731C82.903 45.2079 80.8648 45.1638 78.9836 44.7226C78.4234 44.5755 78.1705 44.3703 77.8775 43.875C77.8481 43.378 77.8271 43.0777 78.125 42.6448L78.8673 42.758L79.2546 42.1533Z"/>
	<path fill="#273638" d="M78.9836 44.7226C80.8648 45.1638 82.903 45.2079 84.8266 45.3731L94.4383 46.1614L94.4936 54.1432C94.4779 55.4527 94.1028 59.414 94.875 60.333C95.6285 60.7386 96.5297 60.9427 97.3959 60.6867C97.6701 60.6056 97.9357 60.4491 98.0595 60.1892C98.6326 58.9866 98.3705 56.4329 98.4405 55.0403L100.394 55.3037C101.454 55.4813 103.158 55.6187 103.812 56.5769C104.176 57.1098 104.049 58.4355 103.936 59.0547C103.633 60.71 103.046 62.6144 101.602 63.6124C100.486 63.9636 99.3219 63.674 98.1889 63.5189L92.5 62.6638C86.1907 61.6692 79.7445 60.82 73.5233 59.3632C72.4413 59.1098 71.5647 58.8288 70.97 57.875C70.9306 56.1248 71.5612 54.3136 72.6724 52.9557C73.4443 52.0123 74.1494 52.0511 75.2512 51.9483C75.2323 53.3249 74.9778 55.238 75.279 56.5541C75.4209 57.174 75.8033 57.3449 76.2906 57.6723C77.1671 57.7706 77.7822 57.7959 78.625 57.468C79.5186 55.9248 78.9915 52.0902 79.03 50.211L78.9836 44.7226Z"/>
	<path fill="#0095B2" d="M78.9836 44.7226C80.8648 45.1638 82.903 45.2079 84.8266 45.3731L94.4383 46.1614L94.4936 54.1432C92.4975 53.8026 79.8077 52.4338 79.2416 52L79.03 50.211L78.9836 44.7226Z"/>
</svg>
